<?xml version="1.0" standalone="no"?>
<!DOCTYPE svg PUBLIC "-//W3C//DTD SVG 20010904//EN"
 "http://www.w3.org/TR/2001/REC-SVG-20010904/DTD/svg10.dtd">
<svg version="1.0" xmlns="http://www.w3.org/2000/svg"
 width="512.000000pt" height="512.000000pt" viewBox="0 0 512.000000 512.000000"
 preserveAspectRatio="xMidYMid meet">

<g transform="translate(0.000000,512.000000) scale(0.100000,-0.100000)"
fill="#000000" stroke="none">
<path d="M2386 5109 c-165 -22 -347 -83 -482 -161 -130 -74 -208 -134 -316
-246 -175 -181 -289 -390 -350 -642 -18 -73 -22 -130 -27 -415 l-6 -330 -125
-6 c-144 -7 -207 -26 -292 -90 -94 -70 -156 -169 -177 -283 -15 -79 -15 -2479
-1 -2557 33 -178 181 -331 358 -368 74 -16 3109 -16 3184 0 177 37 324 188
358 368 14 76 14 2477 -1 2557 -29 159 -146 295 -302 352 -24 9 -95 18 -167
21 l-125 6 -6 330 c-5 284 -9 342 -27 415 -64 268 -191 490 -388 679 -194 187
-416 304 -675 356 -93 19 -341 27 -433 14z m424 -320 c193 -49 349 -138 491
-279 123 -122 202 -247 255 -404 46 -135 54 -208 54 -512 l0 -285 -147 3 -148
3 -5 330 c-5 327 -5 331 -32 406 -50 142 -133 256 -243 334 -138 99 -265 135
-475 135 -210 0 -337 -36 -475 -135 -108 -76 -187 -184 -241 -327 l-28 -73 -6
-335 -5 -335 -147 -3 -148 -3 0 285 c0 304 8 377 54 514 114 334 401 596 747
680 115 29 135 31 284 27 91 -3 155 -10 215 -26z m-27 -601 c80 -37 158 -114
193 -191 l29 -62 3 -312 3 -313 -451 0 -451 0 3 313 3 312 29 62 c45 99 150
187 253 213 21 5 103 8 183 7 133 -2 150 -5 203 -29z m1347 -1193 c16 -8 42
-32 57 -52 l28 -36 3 -1231 c3 -1373 7 -1288 -66 -1344 l-35 -27 -1557 0
-1557 0 -35 27 c-73 56 -69 -29 -66 1343 l3 1230 24 33 c13 19 38 43 55 53 30
18 76 19 1574 19 1352 0 1547 -2 1572 -15z"/>
<path d="M2428 2361 c-81 -26 -135 -61 -195 -123 -58 -63 -87 -114 -108 -195
-52 -199 41 -412 221 -505 l64 -33 0 -255 c0 -280 4 -299 64 -345 38 -28 134
-28 172 0 60 46 64 65 64 345 l0 255 51 25 c221 104 312 388 198 612 -30 59
-120 150 -180 183 -105 57 -242 71 -351 36z m213 -304 c94 -62 90 -199 -7
-254 -51 -29 -97 -29 -149 2 -131 76 -77 275 75 275 32 0 58 -7 81 -23z"/>
</g>
</svg>
