<?xml version="1.0" standalone="no"?>
<!DOCTYPE svg PUBLIC "-//W3C//DTD SVG 20010904//EN"
 "http://www.w3.org/TR/2001/REC-SVG-20010904/DTD/svg10.dtd">
<svg version="1.0" xmlns="http://www.w3.org/2000/svg"
 width="1080.000000pt" height="1080.000000pt" viewBox="0 0 1080.000000 1080.000000"
 preserveAspectRatio="xMidYMid meet">

<g transform="translate(0.000000,1080.000000) scale(0.100000,-0.100000)"
fill="#000000" stroke="none">
<path d="M8984 10773 c5 -17 3 -29 -6 -34 -11 -7 -10 -9 1 -9 10 0 11 -3 2
-14 -8 -10 -9 -16 -1 -21 5 -3 10 -11 10 -16 0 -6 -4 -8 -8 -5 -5 3 -9 -1 -9
-9 0 -8 5 -11 11 -8 8 5 8 2 0 -8 -6 -8 -10 -30 -8 -49 1 -19 -3 -38 -9 -42
-9 -6 -9 -8 1 -8 6 0 12 -6 12 -14 0 -8 -6 -17 -12 -19 -10 -4 -10 -6 0 -6 6
-1 12 -6 12 -12 0 -5 -4 -8 -8 -5 -4 2 -7 -15 -6 -40 1 -24 -1 -42 -5 -40 -4
3 -7 -4 -7 -14 0 -10 4 -16 9 -13 5 3 5 -3 -1 -13 -5 -11 -8 -29 -6 -42 3 -15
0 -21 -7 -16 -8 4 -8 0 0 -15 9 -16 9 -21 -1 -21 -9 0 -9 -3 2 -10 13 -9 13
-10 0 -10 -13 0 -13 -1 0 -10 10 -6 11 -10 3 -10 -7 0 -13 -5 -13 -11 0 -5 3
-8 8 -6 4 3 7 -14 7 -38 0 -24 -3 -41 -7 -38 -5 2 -8 -1 -8 -6 0 -6 4 -11 10
-11 5 0 7 -6 4 -14 -3 -8 -1 -23 5 -34 7 -14 7 -19 -4 -19 -7 0 -11 6 -8 13 2
6 1 14 -4 17 -4 3 -8 -14 -8 -38 0 -28 4 -40 10 -35 6 5 10 -4 10 -25 0 -26
-3 -31 -13 -22 -11 8 -11 5 -1 -17 11 -23 10 -29 -2 -37 -11 -7 -10 -9 6 -10
l20 0 -20 -9 c-11 -5 -15 -9 -9 -9 7 -1 14 -10 17 -20 3 -12 0 -18 -7 -15 -7
3 -11 -18 -11 -65 0 -38 2 -68 5 -66 3 2 5 -12 5 -30 0 -18 -3 -31 -7 -29 -11
7 -14 -40 -3 -59 7 -13 6 -20 -3 -26 -11 -6 -10 -10 5 -15 17 -7 17 -8 0 -21
-14 -10 -18 -24 -16 -59 2 -25 0 -48 -3 -52 -4 -3 -3 -17 3 -31 6 -16 6 -22
-1 -18 -10 6 -14 -7 -11 -34 2 -7 -1 -20 -5 -30 -4 -9 -8 -31 -9 -49 -1 -26 4
-36 19 -42 12 -5 16 -9 10 -9 -7 -1 -15 -8 -18 -17 -6 -15 -4 -15 10 -3 16 13
16 12 5 -9 -7 -12 -17 -20 -23 -16 -7 4 -8 3 -4 -5 4 -6 11 -9 16 -6 11 7 7
-22 -5 -32 -4 -4 -5 -2 0 6 5 9 4 12 -3 8 -8 -6 -10 -42 -2 -42 7 0 4 -58 -4
-62 -5 -3 -6 -2 -3 3 3 6 1 16 -4 24 -7 11 -8 8 -5 -10 2 -14 -1 -30 -6 -37
-5 -7 -5 -14 1 -17 6 -4 8 -14 5 -24 -5 -14 -4 -14 4 -3 6 8 9 23 7 33 -2 10
-1 17 3 14 4 -2 7 -35 7 -72 0 -51 -4 -68 -15 -71 -13 -4 -13 -3 0 6 9 7 10
11 3 11 -23 0 -24 -20 -1 -29 13 -6 17 -10 11 -10 -7 -1 -13 -10 -13 -22 0
-13 4 -18 13 -13 9 6 9 4 1 -7 -6 -8 -10 -39 -9 -69 1 -30 -3 -61 -9 -69 -13
-17 -17 -42 -8 -55 11 -19 10 -46 -3 -36 -11 9 -15 -5 -15 -58 0 -16 -4 -21
-13 -16 -9 6 -9 4 1 -8 10 -13 10 -18 1 -24 -8 -5 -10 -3 -4 7 5 8 4 10 0 6
-11 -10 -16 -39 -6 -33 4 3 7 -4 6 -15 -1 -11 -8 -25 -16 -30 -11 -7 -10 -9 6
-10 l20 0 -20 -9 -20 -9 20 -1 20 -1 -20 -9 c-13 -6 -15 -9 -5 -9 12 -1 12 -3
2 -9 -16 -11 -24 -52 -10 -52 7 0 4 -6 -7 -14 -12 -8 -16 -20 -12 -35 3 -12 0
-21 -6 -21 -6 0 -7 -3 -4 -7 4 -3 1 -13 -6 -21 -9 -13 -9 -14 0 -8 8 4 5 -11
-7 -39 -11 -25 -15 -43 -8 -39 7 5 8 3 3 -6 -20 -33 -21 -133 -1 -237 5 -24 9
-182 6 -198 -1 -5 -1 -14 0 -20 8 -38 8 -45 1 -40 -5 3 -12 -2 -15 -11 -4 -9
-2 -13 5 -8 17 10 -10 -37 -44 -76 -28 -32 -107 -84 -92 -61 3 6 1 11 -4 11
-6 0 -11 -8 -11 -17 0 -14 -2 -15 -9 -4 -6 9 -10 10 -16 2 -5 -9 -10 -9 -21 0
-8 6 -14 8 -14 4 0 -4 -8 -1 -17 6 -9 8 -14 9 -10 2 10 -16 -29 -5 -43 12 -6
8 -18 11 -26 8 -8 -3 -14 0 -14 6 0 6 -7 11 -15 11 -8 0 -15 5 -15 10 0 6 -7
10 -17 10 -9 0 -14 3 -10 6 6 7 -55 42 -83 49 -8 2 -24 7 -34 11 -12 5 -17 4
-13 -3 3 -5 0 -10 -8 -10 -8 0 -12 4 -9 9 3 4 0 8 -5 8 -6 0 -11 -6 -11 -12 0
-9 -4 -8 -10 2 -9 13 -10 13 -10 0 0 -13 -1 -13 -10 0 -5 8 -10 10 -10 5 0
-10 -15 -14 -62 -16 -10 0 -18 -5 -18 -11 0 -6 -3 -8 -7 -5 -3 4 -12 -1 -20
-11 -8 -9 -12 -11 -8 -4 8 16 -1 15 -28 -3 -13 -8 -32 -16 -42 -18 -11 -2 -31
-9 -44 -16 -19 -11 -22 -11 -16 1 6 10 5 10 -5 1 -7 -6 -19 -9 -28 -6 -11 5
-13 2 -7 -8 6 -11 5 -12 -5 -2 -9 8 -19 9 -32 2 -10 -5 -24 -7 -30 -3 -6 4 -8
3 -5 -3 4 -6 -3 -11 -16 -11 -32 0 -51 -6 -59 -17 -5 -6 -8 -5 -8 4 0 11 -3
11 -17 0 -9 -8 -14 -9 -10 -3 5 8 -5 8 -31 -1 -20 -7 -49 -12 -64 -10 -16 2
-28 -1 -28 -6 0 -6 -8 -5 -20 1 -16 8 -20 8 -18 -2 2 -7 -3 -12 -9 -11 -7 2
-13 -2 -13 -7 0 -5 -3 -10 -7 -9 -19 3 -52 -14 -46 -24 4 -6 -2 -8 -15 -5 -12
3 -20 3 -19 -1 1 -3 -2 -6 -8 -6 -5 0 -9 4 -7 8 1 5 -2 6 -8 2 -6 -3 -8 -10
-5 -15 3 -5 0 -12 -7 -17 -19 -11 -39 -13 -32 -2 3 5 10 6 16 3 7 -5 8 -2 4 5
-6 9 -12 9 -25 -3 -10 -9 -21 -13 -24 -9 -4 3 -7 1 -7 -5 0 -7 -7 -12 -16 -12
-8 0 -12 5 -8 11 3 6 -5 3 -20 -6 -20 -14 -26 -14 -26 -4 0 11 -2 11 -9 0 -8
-12 -12 -12 -25 -2 -9 8 -16 9 -16 4 0 -5 -7 -10 -15 -10 -8 0 -11 5 -8 10 4
6 -5 8 -20 5 -18 -3 -33 2 -49 16 -12 11 -28 21 -35 22 -23 4 -64 34 -58 44 3
5 -4 7 -15 5 -11 -2 -18 0 -15 6 4 5 1 9 -4 9 -16 0 -53 39 -46 50 3 5 0 12
-6 16 -8 5 -10 2 -5 -7 4 -8 -2 -3 -13 11 -11 14 -18 32 -15 40 3 8 2 11 -2 8
-8 -9 -45 62 -38 73 3 5 0 9 -7 9 -7 0 -9 3 -6 6 3 4 2 15 -4 25 -7 14 -6 19
3 19 9 0 9 3 2 8 -7 5 -9 62 -7 172 6 295 8 335 18 342 6 5 5 8 -2 8 -7 0 -10
6 -7 13 10 27 10 87 0 87 -7 0 -8 3 -1 8 6 4 10 36 10 72 0 36 2 70 5 75 9 20
8 35 -2 29 -6 -4 -7 0 -1 12 9 20 9 82 -1 121 -2 13 0 25 5 28 5 4 7 10 4 15
-3 5 -1 11 5 15 6 4 7 12 3 18 -10 16 -11 137 -1 143 5 3 5 11 1 17 -4 7 -8
46 -9 87 -1 41 -3 75 -4 75 -1 0 -3 7 -5 15 -2 8 -9 29 -16 45 -7 17 -12 33
-11 38 1 4 -2 7 -8 7 -6 0 -9 3 -9 8 1 4 0 10 -1 15 -1 4 -4 12 -5 17 -1 6 -3
11 -5 13 -2 3 -11 40 -12 55 -1 6 -5 12 -10 12 -5 0 -6 5 -3 10 3 6 2 10 -4
10 -5 0 -8 9 -6 20 2 11 -1 20 -7 20 -6 0 -8 3 -5 6 3 4 2 15 -4 26 -6 11 -13
29 -15 41 -3 12 -6 27 -7 32 -2 6 -7 16 -11 24 -6 9 -5 12 2 7 6 -3 2 16 -8
43 -10 28 -15 52 -12 55 2 3 0 11 -6 18 -6 7 -10 15 -10 18 2 14 -15 50 -23
50 -6 0 -7 5 -4 10 3 6 -3 10 -15 10 -12 0 -19 4 -16 9 3 5 -1 11 -9 15 -8 3
-15 1 -15 -5 0 -6 -4 -8 -8 -5 -4 2 -17 -6 -27 -20 -11 -13 -28 -34 -38 -46
-10 -12 -20 -32 -23 -45 -4 -12 -10 -21 -15 -18 -4 3 -6 -4 -4 -15 2 -12 -4
-26 -18 -35 -12 -8 -16 -15 -10 -15 7 0 10 -9 7 -22 -3 -13 -6 -27 -7 -33 -2
-5 -6 -16 -10 -22 -5 -7 -5 -18 -1 -25 5 -7 3 -8 -6 -3 -10 6 -12 4 -6 -10 6
-16 4 -16 -11 -4 -11 9 -14 10 -9 2 4 -8 2 -13 -6 -13 -9 0 -9 -3 2 -10 12 -8
10 -10 -10 -10 -20 0 -22 -2 -10 -10 13 -9 7 -14 -12 -11 -4 0 -4 -7 -1 -16 4
-10 2 -14 -5 -9 -6 3 -13 -3 -17 -14 -3 -11 -11 -20 -16 -20 -6 0 -7 -4 -4
-10 3 -5 1 -10 -5 -10 -6 0 -15 -11 -20 -25 -5 -14 -15 -25 -21 -25 -7 0 -10
-3 -6 -6 3 -3 -5 -24 -19 -45 -14 -22 -22 -44 -19 -49 4 -6 0 -10 -7 -10 -9 0
-9 -3 2 -10 11 -7 11 -10 2 -10 -7 0 -11 -4 -7 -9 3 -5 1 -12 -4 -16 -10 -5
-8 -36 4 -54 3 -5 1 -12 -5 -16 -6 -4 -8 -11 -5 -16 4 -5 0 -9 -7 -9 -10 0
-10 -2 1 -9 7 -5 9 -11 4 -14 -5 -4 -7 -28 -3 -57 4 -28 4 -53 0 -55 -8 -5 -6
-48 3 -62 4 -7 4 -14 -1 -17 -5 -3 -8 -22 -7 -43 1 -21 -2 -43 -7 -50 -5 -7
-5 -14 2 -18 6 -3 7 -12 3 -18 -12 -19 -12 -36 -1 -43 6 -4 5 -10 -3 -15 -11
-7 -11 -9 -1 -9 7 0 10 -5 6 -11 -9 -15 -11 -200 -2 -205 4 -3 3 -16 -2 -29
-6 -16 -6 -27 1 -31 7 -4 6 -10 -1 -19 -8 -10 -8 -15 0 -20 8 -5 8 -10 0 -20
-6 -7 -7 -16 -3 -18 10 -6 10 -48 0 -64 -4 -7 -4 -14 1 -17 6 -3 9 -501 3
-501 -1 0 -3 -34 -5 -77 -2 -42 -6 -80 -9 -85 -3 -5 -8 -22 -11 -38 -3 -16
-10 -32 -17 -35 -8 -6 -7 -9 2 -13 10 -4 8 -6 -4 -6 -10 -1 -16 -5 -13 -10 3
-5 -4 -21 -16 -37 -13 -16 -16 -24 -8 -20 8 5 3 -3 -12 -16 -15 -14 -25 -28
-21 -32 3 -3 -1 -6 -11 -6 -9 0 -14 -4 -11 -10 3 -5 -1 -10 -10 -10 -9 0 -13
-4 -10 -10 6 -9 -8 -14 -27 -11 -5 0 -8 -4 -8 -10 0 -5 -4 -7 -10 -4 -5 3 -10
-1 -10 -9 0 -9 -5 -16 -11 -16 -5 0 -7 5 -3 11 4 7 -7 1 -24 -11 -17 -12 -37
-20 -46 -17 -8 3 -18 1 -22 -4 -13 -22 -157 8 -180 38 -10 11 -13 11 -18 -2
-3 -9 1 -18 9 -21 24 -9 37 -58 23 -86 -6 -12 -5 -18 4 -18 9 0 9 -3 -2 -10
-11 -7 -11 -10 -2 -10 7 0 11 -4 8 -8 -2 -4 -1 -13 3 -20 6 -10 49 -19 266
-52 69 -11 236 -53 280 -71 17 -7 38 -14 47 -15 10 -2 95 47 190 110 335 221
503 284 775 294 246 8 471 -37 505 -102 10 -18 9 -19 -4 -8 -75 62 -526 65
-668 5 -8 -3 -20 -7 -26 -8 -6 -2 -50 -21 -98 -43 -107 -50 -253 -160 -347
-260 -89 -95 -239 -293 -239 -315 0 -10 38 -56 85 -103 47 -47 85 -92 85 -100
0 -8 7 -17 15 -20 8 -4 13 -10 10 -14 -3 -4 2 -13 10 -20 8 -7 13 -15 11 -19
-3 -4 -1 -22 4 -41 5 -23 8 -27 9 -13 1 12 5 24 10 27 5 4 7 -3 4 -14 -4 -13
1 -26 12 -34 13 -9 15 -15 6 -20 -6 -4 -8 -12 -5 -18 4 -6 9 -5 15 3 6 10 8 8
7 -6 -1 -11 2 -31 5 -45 6 -20 4 -19 -8 5 -13 28 -16 29 -19 6 0 -5 -5 -13
-10 -18 -5 -4 -6 -3 -2 4 13 23 -13 23 -36 1 -13 -13 -20 -19 -15 -14 15 20 6
29 -11 13 -15 -14 -19 -15 -19 -2 0 8 5 11 10 8 6 -3 7 -2 4 4 -9 15 -60 9
-65 -7 -3 -13 -2 -12 7 0 10 13 11 13 11 0 0 -13 1 -13 10 0 7 12 9 10 7 -7 0
-12 -6 -21 -12 -20 -5 1 -9 -4 -7 -11 1 -8 -2 -11 -8 -7 -6 3 -7 11 -4 17 4 6
1 9 -7 6 -8 -3 -14 -12 -14 -21 0 -8 -4 -19 -8 -24 -5 -4 -8 -3 -7 2 5 22 -1
29 -10 15 -8 -11 -9 -7 -5 15 3 17 2 23 -2 14 -5 -9 -15 -15 -24 -14 -12 2
-15 -3 -11 -21 2 -14 9 -21 16 -17 6 4 5 -1 -3 -10 -10 -13 -17 -15 -27 -6
-13 10 -18 6 -15 -13 0 -4 -6 -5 -14 -2 -8 4 -15 1 -15 -7 0 -7 -2 -10 -5 -7
-9 8 6 38 16 32 15 -9 10 3 -7 16 -8 8 -14 9 -13 4 3 -20 -2 -35 -10 -29 -5 3
-13 0 -17 -6 -4 -7 -3 -9 4 -5 6 4 10 -1 9 -13 0 -11 -4 -18 -8 -16 -10 7 -40
-31 -32 -39 5 -4 4 -7 -2 -6 -5 1 -20 2 -32 1 -17 -1 -21 -6 -18 -22 3 -12 2
-19 -2 -15 -4 3 -15 -2 -25 -11 -18 -16 -19 -16 -12 3 5 15 2 14 -14 -6 -14
-17 -17 -28 -11 -36 7 -8 6 -14 -1 -19 -6 -4 -9 -1 -8 7 2 8 -5 12 -17 10 -18
-2 -18 -2 -2 8 9 6 24 25 34 43 9 18 18 26 20 20 7 -21 22 -15 18 7 -2 11 0
18 5 15 6 -3 7 0 4 8 -3 8 -1 18 5 22 7 4 8 0 4 -10 -4 -13 -1 -16 18 -13 13
2 23 9 21 16 -1 8 2 11 9 6 8 -5 9 -3 4 6 -6 9 -4 11 5 5 9 -6 11 -4 5 5 -6 9
-4 11 6 5 8 -5 10 -4 6 0 -10 12 -39 16 -32 5 3 -5 1 -11 -5 -15 -6 -4 -8 -11
-5 -16 4 -5 -2 -9 -11 -9 -10 0 -14 3 -11 7 4 3 2 12 -4 20 -15 18 -40 -2 -32
-25 6 -15 5 -15 -11 -3 -9 8 -16 10 -14 5 2 -5 -2 -9 -7 -9 -6 0 -9 4 -7 10 2
5 0 6 -5 2 -4 -5 -8 -12 -8 -15 -1 -16 -17 -32 -27 -26 -6 4 -8 2 -4 -4 3 -6
15 -9 26 -7 33 6 20 -22 -24 -55 -18 -14 -19 -13 -13 5 6 17 5 18 -5 4 -7 -9
-21 -15 -31 -13 -15 2 -16 0 -6 -12 6 -7 15 -11 20 -8 5 3 9 -2 9 -11 0 -9 -4
-13 -10 -10 -6 3 -7 -1 -4 -10 5 -12 10 -13 20 -5 7 7 11 17 8 25 -3 7 -1 16
5 20 6 3 11 1 11 -5 0 -6 4 -9 8 -6 5 3 9 -1 9 -9 0 -8 -3 -13 -5 -10 -3 3
-14 -2 -24 -11 -15 -14 -16 -20 -5 -33 10 -14 10 -14 -5 -3 -14 11 -18 10 -29
-10 -7 -13 -13 -25 -13 -28 -1 -2 -7 -5 -13 -6 -18 -3 -16 15 3 23 8 3 13 12
10 20 -4 9 -2 11 6 7 7 -5 8 -3 3 6 -6 9 -4 11 5 5 9 -5 11 -4 6 4 -4 6 -12 8
-18 5 -7 -5 -9 -1 -5 9 3 9 -1 21 -11 28 -14 11 -15 11 -5 -1 9 -9 9 -19 2
-32 -9 -16 -13 -17 -27 -6 -15 11 -15 11 -4 -3 10 -13 10 -18 -1 -28 -8 -6
-16 -8 -20 -5 -3 3 -4 -2 -3 -13 5 -27 -4 -35 -22 -21 -15 10 -15 10 -4 -2 7
-8 22 -15 32 -15 11 0 20 -4 20 -10 0 -5 -10 -10 -22 -10 -12 0 -22 -6 -24
-13 -1 -7 0 -8 3 -2 2 5 9 8 14 4 5 -3 6 -11 2 -17 -4 -7 -8 -16 -8 -22 -1 -5
-7 -9 -14 -7 -7 1 -10 -2 -6 -8 3 -6 10 -8 15 -5 12 7 19 -32 8 -43 -6 -6 -5
-12 3 -17 7 -5 10 -4 5 3 -3 6 -2 13 4 17 5 3 10 -2 11 -12 0 -16 1 -16 9 2 7
17 9 17 9 3 1 -10 6 -18 12 -18 5 0 7 -5 3 -12 -4 -7 -3 -8 4 -4 8 4 5 17 -9
40 -21 36 -33 100 -16 89 6 -4 7 -1 2 7 -5 8 -4 11 1 7 6 -3 10 3 11 13 1 10
-4 21 -12 24 -7 2 -12 12 -11 21 3 18 21 21 21 2 0 -6 6 -22 13 -35 11 -20 16
-21 30 -10 13 10 13 7 -2 -9 -10 -12 -23 -21 -28 -20 -6 1 -13 -4 -16 -12 -3
-9 0 -11 7 -7 7 5 10 2 9 -6 -2 -7 4 -12 12 -10 11 3 11 -1 -3 -16 -25 -27
-21 -39 5 -16 13 11 18 13 11 3 -10 -12 -10 -18 0 -29 10 -12 9 -12 -5 -1 -22
16 -23 3 -3 -23 10 -13 15 -15 15 -6 0 7 3 10 6 7 9 -8 -16 -38 -25 -32 -4 2
-8 -2 -8 -10 0 -13 3 -13 16 -2 14 11 20 9 46 -16 17 -16 25 -27 18 -23 -6 3
-14 3 -17 -2 -2 -4 5 -9 16 -9 12 -1 32 -13 45 -27 12 -13 36 -33 53 -42 16
-10 30 -22 30 -26 0 -4 6 -8 14 -8 8 0 22 -9 30 -21 9 -14 19 -18 28 -13 10 6
9 3 -1 -10 -8 -9 -10 -16 -5 -14 5 2 10 -1 12 -7 2 -5 12 -19 23 -31 10 -11
16 -24 12 -29 -5 -4 -2 -5 5 -1 11 6 10 12 -5 29 -18 22 -18 22 3 4 13 -11 20
-26 17 -36 -3 -11 0 -22 6 -25 6 -4 9 -1 5 7 -3 8 -1 17 4 21 11 6 9 -24 -3
-43 -5 -9 -4 -12 2 -8 6 4 14 0 17 -9 9 -24 7 -31 -4 -14 -7 10 -10 11 -10 2
0 -7 6 -15 14 -18 8 -3 13 -17 12 -34 -1 -16 1 -27 5 -24 4 2 8 -4 8 -13 0
-24 5 -45 15 -62 7 -10 6 -12 -4 -6 -9 5 -11 4 -6 -4 8 -13 18 -57 20 -83 0
-10 3 -18 6 -18 4 0 7 -7 7 -15 0 -19 -2 -19 -26 2 -11 9 -17 21 -14 26 3 6 1
7 -5 3 -6 -3 -14 0 -19 7 -4 7 -23 24 -41 36 l-34 24 16 -30 c8 -17 12 -33 9
-37 -4 -3 -1 -6 7 -6 10 0 10 -4 -1 -17 -12 -15 -12 -16 5 -10 16 6 17 5 7 -7
-8 -10 -9 -16 -1 -21 6 -3 8 -11 5 -16 -4 -5 -2 -9 4 -9 5 0 10 -8 9 -18 0 -9
6 -31 13 -49 7 -18 10 -35 6 -39 -7 -8 -57 34 -57 47 0 14 -73 88 -81 83 -4
-2 -10 0 -14 6 -4 6 -11 8 -16 4 -5 -3 -8 0 -7 6 2 6 -13 23 -31 38 -19 15
-31 20 -27 12 4 -8 -1 -6 -11 5 -21 24 -105 68 -97 51 3 -6 0 -4 -8 5 -19 23
-57 41 -70 33 -6 -4 -8 -3 -5 3 4 6 -20 20 -56 33 -195 69 -445 63 -637 -17
-102 -42 -169 -85 -253 -164 -106 -98 -213 -259 -231 -349 -3 -14 -8 -36 -11
-50 -21 -91 -21 -223 0 -305 43 -166 145 -303 308 -412 28 -20 35 -29 26 -39
-6 -7 -18 -10 -26 -7 -11 4 -14 2 -9 -5 4 -7 2 -12 -3 -12 -6 0 -11 -5 -11
-11 0 -5 5 -7 12 -3 7 4 8 3 4 -4 -4 -6 0 -28 9 -48 8 -20 15 -45 15 -56 0
-30 27 -81 66 -127 19 -22 35 -49 36 -58 0 -30 -11 -66 -23 -73 -6 -4 -10 -10
-10 -14 3 -18 0 -29 -5 -23 -4 4 -22 -15 -40 -41 -19 -26 -34 -43 -34 -39 0 4
-9 3 -21 -3 -70 -38 -161 -21 -233 44 -16 14 -33 23 -38 20 -4 -3 -7 -2 -6 3
2 5 -9 24 -25 42 -15 18 -27 27 -27 19 -1 -7 -7 2 -15 20 -8 17 -17 32 -20 32
-3 0 -3 -4 0 -10 3 -5 4 -10 1 -10 -10 0 -35 58 -28 65 4 5 2 6 -4 2 -5 -3
-19 11 -29 31 -10 20 -30 52 -44 71 -13 19 -20 31 -13 28 6 -4 3 10 -6 32 -11
24 -20 35 -24 28 -5 -8 -8 -8 -8 2 0 11 -4 10 -16 -5 -8 -10 -13 -13 -9 -6 3
6 2 12 -4 12 -5 0 -12 -6 -14 -12 -4 -10 -6 -10 -6 -1 -1 14 -31 6 -31 -9 0
-5 5 -6 12 -2 7 5 8 3 3 -6 -6 -10 -10 -10 -20 3 -10 14 -12 14 -23 -3 -6 -10
-19 -17 -29 -16 -10 2 -24 -4 -31 -13 -11 -14 -12 -13 -3 6 7 14 18 21 31 18
11 -2 18 0 16 4 -3 4 -18 7 -33 6 -25 -1 -28 -5 -28 -33 1 -17 -1 -29 -3 -27
-3 2 -12 -4 -21 -13 -9 -10 -12 -13 -8 -6 4 7 3 15 -3 19 -6 4 -9 1 -8 -7 2
-7 -2 -12 -8 -11 -7 1 -10 -5 -7 -15 2 -10 -4 -27 -14 -38 -10 -11 -14 -15
-10 -8 4 7 3 15 -3 19 -6 4 -9 1 -8 -7 2 -7 -2 -12 -8 -11 -7 1 -10 -6 -7 -20
4 -18 3 -19 -6 -7 -8 11 -11 11 -11 2 0 -7 -18 -39 -41 -70 -22 -31 -30 -46
-17 -32 21 23 74 38 61 17 -3 -5 -11 -6 -19 -3 -9 4 -14 -2 -14 -15 0 -11 -4
-17 -10 -14 -6 4 -7 -1 -3 -11 4 -10 2 -15 -4 -11 -5 3 -10 0 -10 -8 0 -8 4
-12 8 -10 3 3 9 -4 12 -16 4 -15 2 -18 -7 -10 -14 11 -26 5 -26 -13 0 -6 5 -4
11 4 9 13 10 13 6 -1 -3 -9 -1 -22 4 -28 6 -8 5 -8 -3 -1 -18 15 -32 12 -19
-3 6 -8 7 -17 3 -21 -4 -4 -1 -6 7 -4 7 1 15 -4 16 -13 4 -20 -21 -54 -30 -40
-3 6 -2 11 3 11 5 0 9 7 9 15 0 8 -4 15 -8 15 -11 0 -18 -39 -8 -46 5 -3 6
-10 3 -16 -4 -6 -2 -8 4 -4 6 3 14 1 18 -5 4 -7 3 -9 -4 -5 -11 6 -42 -30 -42
-49 1 -5 7 1 15 15 8 14 14 20 15 14 0 -6 -9 -23 -20 -37 -11 -14 -20 -31 -21
-39 0 -7 -4 -4 -9 7 -6 13 -9 15 -9 5 -1 -12 -3 -13 -10 -1 -6 9 -8 5 -8 -14
0 -15 2 -22 6 -16 4 6 12 2 20 -10 10 -17 10 -20 -1 -13 -27 17 -44 11 -43
-15 0 -17 -5 -25 -13 -23 -8 1 -11 -2 -7 -8 8 -13 36 6 32 22 -1 6 5 13 13 15
13 4 13 3 0 -6 -8 -6 -11 -11 -6 -11 5 0 1 -9 -9 -20 -10 -11 -15 -20 -10 -20
4 0 2 -6 -5 -14 -6 -8 -17 -13 -25 -10 -7 3 -16 0 -21 -7 -4 -8 -3 -10 4 -5 7
4 12 2 12 -3 0 -6 -8 -11 -17 -11 -14 0 -15 -2 -5 -9 18 -11 15 -21 -10 -48
-11 -12 -17 -26 -13 -33 4 -6 1 -9 -7 -8 -7 2 -12 -3 -10 -10 1 -8 -2 -11 -7
-8 -5 4 -12 2 -16 -4 -3 -5 -1 -10 4 -10 6 0 10 -3 9 -7 -3 -14 15 -67 47
-145 18 -42 30 -79 27 -82 -3 -4 -1 -6 5 -6 6 0 16 -14 23 -30 7 -17 16 -30
21 -30 5 0 8 -3 7 -7 -3 -14 13 -53 20 -49 7 4 7 -45 0 -146 -2 -27 -6 -48 -9
-48 -4 0 -5 -16 -3 -35 2 -26 0 -34 -9 -29 -9 5 -9 3 0 -6 10 -11 9 -18 -5
-34 -12 -14 -13 -17 -2 -11 12 7 13 6 4 -6 -6 -8 -10 -22 -9 -31 2 -10 -1 -20
-5 -23 -5 -3 -7 -12 -4 -19 3 -7 -2 -19 -10 -26 -9 -7 -13 -16 -10 -22 3 -5 0
-16 -8 -25 -11 -14 -11 -16 2 -8 9 5 7 -1 -5 -15 -11 -13 -15 -20 -8 -17 8 5
8 1 0 -17 -7 -13 -15 -22 -20 -19 -4 2 -6 1 -5 -4 1 -4 -3 -19 -10 -33 -12
-23 -12 -24 2 -6 9 11 16 15 16 9 0 -6 -12 -21 -27 -33 -16 -12 -22 -18 -14
-14 8 4 12 3 8 -3 -3 -5 -25 -10 -49 -11 -73 -3 -74 -4 -84 -95 l-9 -82 -45
-3 c-25 -1 -40 1 -33 5 7 5 11 38 10 93 -2 84 -2 85 -27 85 -24 0 -25 -3 -28
-73 -3 -50 1 -78 10 -89 11 -15 11 -16 -7 -9 -11 4 -16 4 -13 0 4 -4 3 -15 -3
-25 -7 -14 -6 -19 3 -19 9 0 9 -3 -2 -10 -12 -8 -12 -10 5 -10 15 0 17 -3 7
-9 -21 -13 15 -24 71 -22 32 2 47 -2 47 -10 0 -7 3 -10 6 -6 12 11 45 -29 38
-47 -4 -11 -2 -16 7 -14 7 2 13 -2 14 -9 0 -6 3 -14 7 -18 4 -4 4 -13 1 -21
-6 -17 13 -19 21 -1 3 6 3 -1 1 -18 l-4 -30 19 25 19 25 -4 -23 c-4 -21 -2
-22 13 -11 9 7 14 9 10 5 -4 -5 -3 -15 4 -23 8 -11 7 -12 -6 -7 -11 4 -16 1
-16 -11 0 -11 5 -15 15 -11 13 5 20 -5 16 -27 0 -4 4 -7 10 -7 6 0 7 -5 2 -12
-10 -17 -13 -38 -5 -37 4 1 14 1 22 0 13 -1 13 -2 0 -11 -10 -6 -11 -10 -2
-10 6 0 11 -3 11 -7 -1 -5 0 -11 1 -15 3 -10 7 -26 9 -35 0 -4 7 1 14 12 11
14 16 15 22 5 6 -9 4 -11 -5 -5 -10 6 -12 4 -7 -8 4 -10 2 -16 -6 -14 -7 1
-12 -7 -13 -18 -1 -11 -5 -28 -9 -39 -5 -11 -3 -26 4 -38 11 -18 10 -18 -11
-7 -22 12 -22 11 -8 -6 8 -10 10 -16 3 -12 -7 5 -16 -1 -23 -13 -6 -11 -15
-19 -21 -17 -6 1 -18 -8 -26 -21 -9 -13 -12 -22 -7 -21 23 4 26 -2 8 -17 -19
-15 -19 -16 1 -10 19 6 19 6 1 -9 -10 -8 -22 -12 -26 -10 -4 2 -7 -1 -8 -8 -1
-7 -3 -24 -6 -40 -3 -20 2 -31 17 -43 l22 -15 -27 -20 c-18 -13 -25 -26 -21
-37 3 -9 3 -14 -1 -11 -4 4 -8 15 -11 27 -2 15 3 22 22 27 24 6 25 7 7 20 -14
9 -23 10 -32 3 -7 -6 -10 -13 -8 -16 8 -7 -13 -42 -26 -42 -6 0 -5 7 3 17 13
17 13 17 -7 0 -11 -9 -24 -14 -28 -10 -4 5 -7 3 -6 -2 5 -21 0 -36 -10 -30 -6
3 -7 -1 -4 -9 4 -11 0 -16 -12 -17 -11 0 -14 -3 -6 -6 6 -2 12 -9 12 -15 0 -6
-7 -8 -15 -4 -8 3 -14 2 -14 -2 3 -18 -2 -32 -12 -32 -5 0 -7 5 -4 10 10 16
-1 12 -15 -6 -8 -8 -9 -14 -4 -13 34 6 45 -19 14 -33 -10 -5 -7 -7 10 -8 23
-1 23 -2 5 -9 -11 -5 -29 -7 -39 -5 -15 3 -17 1 -8 -8 7 -7 8 -17 1 -30 -5
-10 -7 -18 -4 -18 3 0 1 -10 -5 -22 -11 -21 -10 -21 8 1 11 14 18 30 15 37 -2
7 0 15 6 19 6 3 11 1 11 -5 0 -6 6 -8 13 -4 6 4 3 -2 -7 -14 -18 -21 -18 -22
-1 -22 17 0 17 -1 2 -18 -10 -10 -14 -22 -10 -27 5 -4 2 -5 -4 -1 -13 7 -17
-4 -14 -32 2 -16 -6 -15 -12 2 -3 8 3 26 14 40 12 15 15 27 9 31 -5 3 -10 1
-10 -6 0 -7 -11 -27 -26 -46 -14 -18 -22 -33 -18 -33 3 0 0 -8 -7 -17 -8 -9
-9 -14 -3 -10 7 4 14 -2 17 -14 4 -14 10 -18 19 -13 7 4 5 -2 -5 -13 -22 -25
-22 -39 1 -22 15 12 16 12 5 -2 -7 -9 -10 -19 -7 -22 4 -4 -3 -5 -14 -2 -24 4
-31 -11 -21 -45 6 -23 7 -23 8 -3 1 26 19 39 33 25 6 -6 6 -12 -3 -17 -8 -5
-10 -4 -5 3 4 7 2 12 -3 12 -6 0 -11 -6 -11 -14 0 -8 -3 -23 -6 -33 -5 -17 -5
-17 10 1 14 18 15 18 13 -2 0 -11 -5 -18 -10 -15 -5 3 -7 0 -5 -8 3 -8 10 -13
15 -12 5 1 10 -5 10 -12 0 -10 -4 -12 -12 -5 -9 7 -16 6 -24 -4 -7 -9 -8 -17
-2 -20 5 -3 12 -1 14 4 4 7 5 6 3 -1 -1 -6 -5 -10 -10 -9 -5 1 -13 -4 -18 -12
-6 -9 -8 -8 -6 7 2 11 -2 20 -9 20 -17 0 -41 25 -25 25 7 0 12 -6 12 -12 0 -9
4 -8 10 2 16 25 11 40 -12 41 -22 0 -22 1 -3 8 12 5 23 4 28 -3 4 -6 5 3 1 19
-9 38 -14 44 -14 17 0 -14 -6 -22 -17 -22 -10 0 -14 3 -8 8 17 12 39 63 40 90
1 18 5 26 15 24 8 -2 11 0 7 4 -16 16 -33 11 -35 -10 -2 -31 -24 -66 -36 -59
-6 4 -5 -1 3 -10 12 -15 11 -20 -2 -35 -12 -13 -13 -22 -6 -29 7 -7 5 -14 -4
-22 -12 -9 -15 -6 -15 16 0 16 5 34 11 41 7 9 7 16 -2 25 -10 9 -11 8 -5 -7 5
-12 4 -17 -3 -13 -6 4 -9 -5 -9 -21 1 -15 -2 -34 -6 -43 -5 -12 -2 -16 14 -15
12 0 23 -4 25 -10 2 -7 -10 -10 -32 -9 -19 1 -32 -1 -29 -4 3 -3 18 -6 32 -6
20 0 26 -5 24 -17 -3 -17 122 -18 2173 -18 1745 0 2175 2 2175 12 0 9 3 8 10
-2 8 -13 10 -13 10 2 0 10 -9 18 -22 20 -17 2 -24 11 -27 33 -3 26 -4 28 -11
10 -8 -20 -9 -20 -9 1 -1 11 -13 31 -28 45 l-28 24 23 -26 c17 -19 19 -26 8
-26 -8 0 -13 4 -11 8 3 3 -2 12 -11 19 -8 7 -13 19 -10 26 7 17 -10 28 -20 13
-5 -8 -3 -9 6 -4 9 6 11 4 6 -4 -6 -9 -13 -8 -27 5 -12 11 -16 21 -10 28 6 7
6 17 -1 26 -8 13 -9 13 -5 -1 3 -8 -3 -21 -14 -27 -11 -7 -19 -9 -18 -5 1 5 0
13 -1 18 -1 6 -3 17 -4 25 0 8 -6 14 -13 13 -8 -2 -10 4 -6 14 5 12 3 14 -8 8
-8 -4 -11 -5 -7 0 4 4 1 20 -8 36 -23 46 -10 34 25 -22 17 -28 29 -54 26 -59
-3 -5 -1 -12 5 -15 7 -4 10 5 8 24 -1 16 -6 27 -10 25 -8 -5 -12 11 -9 29 1 5
-2 6 -7 3 -8 -5 -35 37 -36 58 -1 5 -8 11 -16 13 -13 4 -13 3 0 -7 13 -10 13
-11 0 -7 -8 2 -14 10 -12 17 2 7 0 20 -3 28 -4 12 -8 12 -22 1 -15 -13 -15
-12 -5 7 10 18 7 25 -16 48 -15 14 -36 33 -47 42 -11 8 -13 12 -5 8 13 -7 13
-5 1 9 -7 9 -17 15 -21 12 -5 -3 -12 0 -16 6 -4 8 -3 9 4 5 7 -4 12 -4 12 -1
0 11 -28 35 -40 35 -6 0 -9 4 -6 9 7 11 -13 9 -34 -3 -12 -7 -13 -6 -2 5 14
16 16 33 2 24 -6 -3 -7 1 -4 9 4 9 1 16 -6 16 -7 0 -10 7 -6 16 4 12 2 15 -9
10 -13 -5 -14 -2 -4 17 12 21 11 21 -6 7 -17 -14 -18 -14 -6 9 10 18 10 22 1
16 -10 -6 -12 -1 -8 18 3 15 1 24 -3 21 -13 -8 -11 10 4 25 7 9 7 11 1 8 -7
-4 -15 0 -18 9 -3 8 -11 12 -17 8 -8 -5 -9 -3 -4 5 10 17 -15 62 -29 54 -6 -3
-8 -2 -3 2 4 5 -1 17 -10 28 -10 11 -12 17 -5 13 7 -4 12 -2 12 6 0 9 3 9 10
-2 5 -8 10 -11 10 -6 0 5 11 -1 25 -14 14 -13 25 -19 25 -14 0 5 7 1 14 -9 8
-10 16 -17 19 -15 9 6 66 -60 59 -69 -4 -4 -3 -5 2 0 5 4 18 -1 28 -10 15 -13
19 -14 16 -3 -4 18 32 26 43 9 9 -15 37 -21 44 -9 3 5 -4 7 -15 5 -24 -5 -26
7 -5 25 11 9 12 16 5 25 -7 9 -8 15 -1 19 6 4 7 14 4 24 -5 15 -3 14 18 -3 13
-11 18 -13 12 -5 -6 8 -12 20 -13 25 -1 6 -4 12 -7 15 -4 3 -3 -1 2 -9 5 -9 4
-12 -3 -7 -13 8 -31 -22 -27 -45 2 -9 -3 -16 -9 -16 -7 0 -12 11 -12 23 0 12
4 20 8 18 4 -3 6 5 4 18 -2 13 -9 22 -16 20 -6 -1 -9 2 -5 8 4 7 11 7 18 2 7
-5 24 -8 39 -7 15 1 25 -1 23 -5 -2 -3 0 -12 6 -20 7 -13 9 -12 9 2 0 17 1 17
20 1 11 -10 20 -24 21 -33 0 -9 4 -5 10 8 5 14 13 20 20 16 8 -5 9 -3 4 5 -4
7 -8 25 -10 39 -1 15 -3 32 -5 37 -1 6 -2 16 -1 24 1 11 5 10 16 -5 17 -22 20
-12 5 17 -6 10 -8 19 -6 19 3 0 12 -12 20 -27 8 -16 15 -22 16 -14 0 8 2 12 5
9 3 -3 2 -13 -1 -22 -5 -13 -9 -14 -14 -6 -5 8 -11 1 -18 -19 -10 -29 0 -53
15 -37 4 3 2 6 -4 6 -6 0 -9 9 -6 20 3 11 9 17 14 14 5 -3 6 -11 2 -17 -4 -7
0 -6 10 2 9 7 15 17 12 21 -7 12 21 6 37 -8 11 -9 17 -9 27 1 7 6 12 8 11 2
-5 -21 1 -29 10 -15 6 10 4 21 -8 35 -16 19 -16 19 2 5 18 -14 19 -13 13 2 -3
10 -2 20 4 23 5 4 9 3 8 -2 -3 -20 2 -34 11 -28 6 4 9 1 8 -6 -2 -7 3 -13 11
-14 14 0 32 -34 25 -47 -3 -4 1 -10 7 -14 7 -4 9 -3 6 3 -4 6 1 17 10 24 15
12 16 12 10 -5 -7 -17 -6 -17 10 -5 14 12 16 12 8 0 -6 -11 -4 -13 9 -8 10 4
15 3 11 -3 -7 -11 29 -32 39 -23 4 4 10 -4 13 -17 6 -22 7 -23 14 -4 7 18 8
18 8 -2 1 -22 19 -44 36 -44 5 0 3 5 -5 10 -8 5 -10 10 -4 10 18 0 24 -13 12
-27 -9 -11 -8 -13 3 -11 8 2 13 -4 13 -14 -1 -11 5 -15 16 -13 12 2 20 -4 24
-18 3 -12 8 -18 12 -14 10 10 35 -13 28 -25 -4 -6 5 -3 18 6 27 17 40 13 31
-11 -5 -12 -7 -12 -14 -1 -6 9 -9 9 -9 1 0 -6 5 -15 10 -18 6 -4 8 -10 6 -14
-3 -4 1 -8 9 -8 11 0 12 4 4 13 -7 8 -7 14 1 19 5 3 11 4 11 1 1 -3 2 -9 3
-13 1 -5 10 -23 20 -42 10 -18 13 -30 6 -26 -7 4 -10 -5 -8 -29 1 -19 5 -33 9
-30 4 2 5 13 2 24 -3 11 -1 20 5 20 5 0 9 -18 8 -39 -1 -22 1 -38 6 -35 5 3 6
9 3 14 -3 5 -1 11 4 15 6 3 8 -3 6 -14 -2 -11 3 -22 11 -25 17 -6 10 -26 -9
-26 -7 0 -6 4 3 10 12 7 10 9 -7 7 -17 -1 -19 -4 -11 -14 6 -7 16 -13 23 -13
17 0 27 -27 14 -36 -6 -4 -6 -11 2 -20 6 -7 16 -11 23 -7 6 4 4 -2 -4 -12 -8
-10 -10 -16 -4 -12 16 9 24 -14 19 -53 -3 -22 -1 -29 8 -23 7 4 7 0 -2 -10
-19 -23 -20 -22 -16 14 3 18 2 29 -2 25 -5 -5 -8 -16 -12 -59 -1 -5 -5 -6 -10
-2 -6 3 -8 -7 -5 -22 4 -25 3 -26 -9 -11 -13 16 -15 16 -25 -7 -9 -19 -9 -24
1 -22 6 1 13 -9 15 -22 2 -15 0 -21 -7 -16 -6 3 -9 10 -7 14 3 4 -1 8 -9 8
-13 0 -13 -3 0 -17 8 -9 12 -20 8 -24 -5 -4 -1 -6 7 -4 9 2 15 -4 15 -17 0
-12 -6 -19 -14 -17 -10 2 -12 0 -4 -10 5 -7 9 -25 8 -40 -1 -15 2 -25 6 -23 4
3 6 13 5 23 -2 9 2 20 8 24 7 5 7 8 -3 8 -10 0 -11 3 -3 13 12 14 12 58 1 51
-4 -2 -3 10 3 28 5 18 11 42 12 53 2 11 7 20 12 20 5 0 16 4 24 9 10 7 10 3
-2 -11 -23 -25 -23 -39 0 -22 15 13 16 12 3 -3 -7 -10 -17 -15 -22 -12 -5 3
-9 1 -9 -4 0 -17 13 -22 29 -9 14 10 14 10 4 -4 -10 -12 -10 -18 0 -29 10 -12
9 -12 -4 -2 -9 6 -20 8 -24 4 -5 -4 -5 -2 -1 5 3 6 1 15 -5 19 -8 4 -9 -5 -5
-32 3 -22 5 -43 6 -47 0 -5 4 -6 8 -3 5 3 9 -1 9 -9 0 -11 -4 -12 -14 -4 -9 8
-13 8 -13 1 0 -6 5 -14 10 -17 6 -3 10 -16 9 -28 -1 -21 -2 -20 -10 3 l-8 25
2 -25 2 -25 1123 -3 1122 -2 0 2165 c0 1725 -3 2165 -12 2166 -148 9 -247 67
-307 178 -62 116 -62 228 -2 357 52 111 151 185 268 200 l53 6 0 2864 0 2864
-911 0 -911 0 6 -27z m-57 -1456 c0 -8 -6 -14 -14 -14 -9 0 -10 4 -2 14 6 7
12 13 14 13 1 0 2 -6 2 -13z m0 -33 c-3 -3 -12 -4 -19 -1 -8 3 -5 6 6 6 11 1
17 -2 13 -5z m0 -20 c-3 -3 -12 -4 -19 -1 -8 3 -5 6 6 6 11 1 17 -2 13 -5z
m748 -25 c-3 -4 4 -6 15 -4 11 2 20 -1 20 -7 0 -6 3 -9 6 -5 3 3 16 -4 28 -17
17 -18 18 -18 6 -1 -15 20 -15 20 8 1 12 -11 21 -25 18 -32 -3 -8 3 -10 17 -7
18 4 19 3 7 -6 -8 -6 -12 -11 -7 -11 19 0 23 -5 39 -39 18 -41 21 -136 4 -166
-16 -28 -47 -59 -79 -79 -22 -14 -25 -19 -15 -30 26 -25 70 -84 70 -93 0 -4 4
-16 10 -27 8 -14 7 -17 -4 -10 -11 6 -11 5 1 -9 11 -14 11 -17 0 -18 -10 0
-11 -2 -1 -6 6 -2 12 -9 12 -14 0 -6 -4 -8 -8 -5 -5 3 -9 -1 -9 -9 0 -8 5 -12
10 -8 5 3 4 -4 -2 -14 -6 -11 -7 -24 -3 -28 4 -5 2 -5 -4 -2 -13 8 -28 -38
-19 -53 3 -6 -1 -7 -9 -4 -10 4 -16 1 -16 -8 0 -18 -35 -51 -79 -73 l-34 -17
29 -14 c16 -8 34 -24 40 -37 5 -12 16 -21 23 -19 7 1 10 -2 6 -8 -3 -5 -1 -10
4 -10 6 0 11 -7 11 -15 0 -8 6 -15 13 -15 8 0 7 -4 -3 -10 -12 -8 -12 -10 5
-11 11 0 14 -3 8 -6 -7 -2 -13 -11 -13 -19 0 -9 4 -13 10 -9 5 3 8 -12 6 -37
-2 -23 -8 -44 -15 -46 -6 -2 -11 -13 -11 -23 0 -14 -4 -18 -12 -13 -9 6 -9 3
0 -9 12 -14 11 -16 -8 -12 -18 4 -20 2 -9 -11 7 -8 8 -14 3 -13 -5 2 -31 -7
-59 -20 -61 -27 -205 -33 -255 -10 -3 1 -12 3 -20 3 -8 1 -14 8 -12 16 2 10 0
11 -11 2 -14 -12 -27 -6 -27 12 0 6 5 4 10 -4 5 -8 10 -10 10 -4 0 6 -9 19
-20 29 -11 10 -17 21 -15 26 3 4 1 10 -5 14 -6 4 -7 11 -4 17 4 7 2 8 -5 4 -9
-6 -9 -11 0 -22 8 -10 8 -14 0 -14 -11 0 -15 15 -11 35 5 26 -4 82 -15 93 -2
3 0 11 5 17 7 9 7 21 0 39 -5 15 -6 25 -1 22 5 -4 26 13 47 36 20 24 33 36 29
28 -8 -13 -7 -13 8 -1 19 15 16 23 -12 28 -10 1 -31 8 -47 14 -16 7 -33 11
-37 10 -5 -1 -6 3 -3 8 4 5 -3 12 -14 16 -11 3 -23 17 -26 31 -3 13 -11 24
-17 24 -6 0 -7 3 -4 7 4 3 -1 15 -10 26 -10 11 -12 17 -5 13 13 -8 17 6 5 18
-12 11 -10 70 2 78 6 5 5 8 -3 8 -19 0 42 101 72 119 14 9 26 19 26 24 0 4 4
6 9 2 5 -3 13 -1 16 5 4 6 3 10 -2 9 -16 -4 -63 13 -63 23 0 5 -4 7 -9 4 -11
-7 -59 49 -76 89 -20 47 -23 125 -4 125 5 0 7 -5 3 -12 -4 -7 -3 -8 5 -4 9 6
9 11 -1 24 -11 13 -11 15 3 10 9 -4 16 -1 16 8 0 7 -5 11 -11 8 -6 -3 0 3 13
14 13 10 21 24 17 31 -5 7 -1 9 8 5 9 -3 16 -1 16 5 0 15 40 39 75 45 17 2 82
8 145 11 63 4 116 8 117 9 7 6 82 -8 78 -15z m-748 5 c-3 -3 -12 -4 -19 -1 -8
3 -5 6 6 6 11 1 17 -2 13 -5z m-34 -599 c-7 -21 -12 -19 -10 4 0 11 5 18 9 15
4 -3 5 -11 1 -19z m-22 -98 c-10 -9 -11 -8 -5 6 3 10 9 15 12 12 3 -3 0 -11
-7 -18z m470 -160 l-24 -22 19 27 c10 14 21 24 23 22 3 -3 -6 -15 -18 -27z
m-39 -90 c-7 -8 -10 -16 -7 -19 3 -2 -1 -5 -8 -5 -8 0 -14 6 -14 13 0 7 4 11
9 8 4 -3 11 2 14 11 4 9 9 14 12 11 3 -3 0 -12 -6 -19z m11 -94 c-5 -11 -8
-12 -13 -2 -5 7 -6 19 -3 26 5 11 8 12 13 2 5 -7 6 -19 3 -26z m43 -90 c-10
-11 -19 -7 -22 10 -2 15 0 16 12 6 8 -6 12 -14 10 -16z m434 -133 c40 -24 71
-58 57 -64 -7 -2 -3 -5 8 -5 17 -1 17 -3 5 -11 -12 -8 -12 -10 -1 -10 8 0 11
-7 8 -19 -2 -10 0 -25 5 -32 8 -11 9 -10 4 3 -3 10 0 20 7 24 7 4 9 4 5 -1 -4
-4 -3 -17 3 -28 8 -14 8 -18 0 -13 -7 5 -11 -8 -11 -39 0 -34 3 -44 13 -39 6
4 4 -2 -6 -13 -9 -11 -14 -23 -10 -28 5 -4 2 -5 -5 -1 -9 6 -10 11 -3 20 8 9
7 13 -3 13 -13 0 -14 -7 -4 -47 2 -9 -3 -14 -11 -12 -9 2 -11 -3 -7 -14 5 -13
4 -14 -7 -6 -16 14 -27 6 -26 -17 0 -12 3 -11 9 4 6 15 9 16 9 4 1 -23 -10
-31 -26 -17 -11 9 -12 7 -6 -8 6 -17 5 -17 -10 -5 -15 12 -17 12 -11 -3 4 -9
3 -16 -2 -15 -5 1 -11 1 -14 -1 -39 -14 -210 -19 -275 -7 -72 14 -116 28 -111
36 3 5 -5 7 -19 6 -15 -2 -22 1 -19 9 2 6 -3 20 -11 31 -16 19 -16 19 -5 -2
14 -29 5 -30 -11 -2 -9 17 -8 23 2 30 11 7 10 9 -5 9 -14 0 -17 6 -14 25 3 14
1 28 -4 31 -5 3 -6 15 -3 27 5 18 4 19 -5 7 -10 -12 -10 -10 -5 10 3 14 8 41
9 61 2 19 8 44 14 56 6 11 9 22 7 25 -2 2 6 10 18 17 21 13 21 13 7 -5 -9 -12
-4 -10 13 5 15 14 27 21 27 17 0 -4 8 -2 18 3 28 17 372 9 402 -9z m-512 -105
c-3 -3 -9 2 -12 12 -6 14 -5 15 5 6 7 -7 10 -15 7 -18z m-3 -24 c3 -5 2 -12
-3 -15 -5 -3 -9 1 -9 9 0 17 3 19 12 6z m4 -84 c8 -10 7 -14 -2 -14 -8 0 -14
6 -14 14 0 7 1 13 2 13 2 0 8 -6 14 -13z m441 -288 c0 -4 8 -6 18 -4 25 4 66
-31 58 -51 -5 -13 -4 -14 7 -6 22 19 27 2 9 -26 -9 -15 -12 -23 -5 -19 6 4 14
3 18 -2 8 -14 -5 -62 -16 -55 -5 3 -5 -5 0 -18 10 -28 3 -51 -12 -41 -7 4 -6
-1 2 -10 12 -15 9 -21 -11 -18 -7 1 0 -50 8 -58 2 -2 -1 -10 -8 -18 -9 -11
-14 -11 -31 4 -20 18 -20 18 -2 -10 14 -21 15 -27 4 -25 -8 2 -13 -3 -11 -10
1 -6 -1 -11 -5 -11 -5 1 -11 0 -15 -1 -5 -1 -12 -4 -18 -5 -5 -1 -11 -3 -12
-5 -10 -7 -37 -6 -32 2 4 6 -4 3 -17 -5 -16 -10 -41 -13 -74 -11 -27 2 -73 5
-101 7 -34 3 -63 13 -90 30 -21 15 -34 27 -28 27 5 0 16 -6 24 -12 12 -11 12
-10 1 5 -7 9 -19 17 -26 17 -7 0 -19 8 -26 17 -12 14 -12 16 0 9 9 -6 12 -5 9
5 -3 8 -12 13 -19 11 -8 -2 -11 0 -7 3 4 4 3 17 -3 28 -6 10 -7 17 -2 14 6 -4
9 5 9 19 -1 14 -8 29 -16 34 -10 7 -11 10 -2 10 6 0 12 5 12 11 0 5 -4 8 -8 5
-5 -3 -9 1 -9 9 0 8 4 12 9 9 4 -3 8 -1 8 5 0 5 -6 12 -12 14 -8 4 -7 6 3 6 9
1 23 9 30 18 8 10 9 14 2 10 -6 -4 -14 -3 -18 3 -3 5 -1 10 5 10 6 0 8 5 4 12
-5 7 -2 9 8 5 10 -3 15 0 14 11 0 10 16 25 40 37 36 18 60 21 188 22 80 0 146
-3 146 -8z m124 -147 c-6 -28 -4 -33 7 -26 10 5 8 0 -3 -19 -10 -14 -18 -29
-18 -33 0 -3 8 0 18 7 9 7 7 2 -5 -12 -19 -20 -20 -28 -10 -39 10 -12 9 -12
-5 -1 -19 14 -25 2 -8 -15 7 -7 6 -11 -4 -11 -8 0 -13 4 -10 9 3 4 0 8 -7 8
-8 0 -8 5 2 16 13 16 20 37 20 64 1 8 5 30 11 48 7 24 7 37 -1 45 -6 6 -11 16
-11 22 0 5 7 1 15 -10 10 -13 13 -30 9 -53z m-2099 -400 c-3 -3 1 -12 8 -20 8
-11 8 -14 0 -9 -6 4 -14 1 -16 -5 -3 -7 -6 -3 -6 10 -1 13 -5 21 -11 17 -6 -3
-5 -15 2 -31 7 -15 14 -21 16 -15 2 6 10 11 19 11 12 0 12 -2 -1 -16 -20 -20
-21 -30 -1 -14 13 11 14 10 9 -5 -4 -10 -3 -16 2 -13 5 4 10 -4 10 -17 2 -21
-9 -25 -36 -15 -3 1 -8 2 -12 1 -7 -1 -33 41 -30 47 6 9 0 22 -8 17 -6 -3 -7
1 -4 10 6 14 8 14 20 -2 13 -16 13 -15 5 8 -10 28 -1 46 24 46 8 0 13 -3 10
-5z m-50 -80 c-3 -3 2 -16 10 -29 10 -14 11 -22 4 -21 -6 2 -14 -4 -16 -12 -4
-12 -3 -12 5 -1 6 8 12 9 16 3 3 -5 -1 -15 -8 -21 -20 -17 -29 2 -21 42 4 17
4 29 -1 24 -4 -4 -9 -18 -11 -30 -2 -12 -5 -30 -6 -39 -5 -28 -11 -28 -24 -2
-8 17 -8 26 -1 31 6 3 8 1 4 -5 -3 -6 -1 -14 5 -18 8 -4 9 5 6 29 -3 24 -1 36
7 34 6 -1 10 3 9 9 -1 6 5 11 13 11 8 0 12 -3 9 -5z m68 -58 c4 -1 11 -2 15
-3 11 -1 15 -58 14 -206 -1 -110 -6 -176 -12 -182 -1 -2 -4 -12 -5 -23 -1 -11
-4 -22 -5 -25 -1 -3 -4 -9 -5 -15 -1 -5 -4 -13 -5 -17 -1 -5 -3 -12 -4 -18 -2
-5 -6 -26 -11 -45 l-9 -35 -7 28 c-9 35 -1 66 12 45 6 -9 8 -6 6 9 -1 15 -5
19 -12 13 -7 -6 -15 -6 -22 1 -6 6 -10 5 -10 -5 0 -8 4 -13 9 -10 10 7 10 6
-6 -39 -8 -25 -15 -34 -19 -25 -3 8 -1 21 3 29 5 7 5 18 1 24 -13 15 6 58 21
49 25 -16 46 -11 43 8 -2 10 0 16 4 13 5 -2 7 10 6 28 -2 17 1 40 7 50 16 30
19 59 5 50 -9 -5 -9 -3 -1 8 13 16 15 51 2 43 -10 -6 -11 10 -1 20 4 3 8 13 9
22 2 14 0 14 -21 0 -23 -15 -25 -15 -35 4 -10 19 -6 24 13 21 5 -1 6 3 3 8 -7
10 -25 9 -43 -2 -6 -4 -14 -3 -18 3 -4 6 -11 8 -16 5 -9 -6 -14 9 -9 30 1 6
-2 7 -6 3 -4 -4 -13 -3 -20 3 -10 8 -12 6 -9 -11 2 -12 8 -27 13 -34 5 -6 9
-22 10 -36 1 -20 -1 -22 -9 -10 -9 13 -10 12 -5 -2 3 -10 0 -20 -6 -24 -7 -5
-8 -2 -3 6 5 8 4 11 -3 6 -6 -4 -8 -14 -5 -22 4 -11 8 -12 13 -4 4 7 6 -11 5
-39 -1 -28 1 -49 4 -46 12 7 4 -101 -8 -124 -7 -13 -10 -25 -7 -29 3 -3 6 0 6
7 0 7 4 9 10 6 12 -8 3 -76 -14 -103 -4 -7 -5 -16 -2 -19 3 -4 6 -1 6 6 0 7 5
9 10 6 6 -3 8 -18 5 -33 -5 -27 -5 -27 6 2 9 21 14 25 20 15 7 -11 9 -10 9 4
0 9 -5 17 -11 17 -5 0 -7 5 -4 10 10 16 25 2 25 -22 0 -34 8 -17 15 32 4 25 9
47 12 50 10 9 -7 -92 -17 -105 -5 -6 -6 -15 -2 -19 4 -4 0 -6 -8 -4 -9 2 -14
-3 -12 -11 3 -12 0 -12 -12 -1 -18 15 -20 7 -6 -21 8 -15 8 -19 -2 -17 -7 2
-12 -3 -10 -9 1 -7 -4 -12 -10 -10 -8 1 -12 -7 -12 -21 1 -12 -1 -20 -5 -17
-3 4 -6 10 -6 13 0 4 -4 13 -9 20 -4 7 -5 20 -2 28 4 10 1 14 -6 12 -16 -6
-18 -28 -5 -46 7 -9 6 -17 -2 -25 -10 -9 -11 -8 -5 8 7 18 6 19 -11 5 -17 -13
-18 -13 -10 0 16 25 12 54 -9 79 -12 13 -15 21 -7 16 11 -6 13 -4 8 8 -3 9 -3
16 1 16 19 -3 23 2 12 16 -7 8 -16 12 -21 9 -5 -3 -5 6 0 19 6 15 6 28 0 34
-6 6 -5 10 5 10 9 0 12 -9 10 -27 -3 -16 1 -32 11 -40 9 -8 15 -8 15 -2 0 6
-5 14 -10 17 -7 4 -7 11 -2 18 5 7 8 20 7 30 -2 9 1 15 6 11 14 -8 11 10 -5
31 -9 13 -11 25 -5 36 9 17 3 29 -14 29 -5 0 -7 -6 -4 -14 3 -8 -2 -20 -11
-27 -14 -11 -15 -11 -5 0 6 7 9 20 6 27 -3 8 2 17 11 20 13 5 14 10 5 20 -6 7
-7 19 -3 26 12 18 11 40 -1 58 -9 13 -8 13 7 2 10 -8 14 -20 11 -30 -6 -15 -5
-15 10 -3 17 13 16 15 -4 37 -19 20 -20 24 -6 30 13 5 14 9 4 25 -15 24 -28
25 -21 2 3 -10 -2 -7 -10 7 -8 14 -15 27 -16 30 0 9 53 6 68 -3 6 -5 12 -4 12
0 0 5 -6 15 -12 22 -8 8 -8 11 -2 8 7 -4 12 3 12 18 0 14 -4 22 -9 19 -5 -3
-6 2 -3 11 4 8 1 22 -5 29 -9 11 -9 16 0 22 7 4 9 3 5 -4 -3 -6 -2 -13 4 -17
13 -8 13 21 0 46 -8 14 -8 19 1 17 6 -2 14 3 17 11 3 9 0 11 -8 6 -9 -6 -11
-4 -5 5 5 9 14 4 32 -16 13 -16 22 -24 19 -17 -4 6 -2 14 4 18 6 4 7 11 4 17
-4 7 -2 8 5 4 6 -4 8 -13 5 -19 -4 -7 4 -3 17 9 14 12 36 20 52 19 15 -1 25 1
21 4 -3 3 -14 7 -25 7 -29 2 -31 3 -24 14 4 6 12 7 18 3 7 -4 15 -8 20 -9z
m-93 -179 c4 0 12 -4 17 -9 5 -5 2 -6 -6 -1 -10 6 -12 4 -7 -4 6 -9 13 -8 29
6 11 10 18 13 14 7 -10 -17 23 -58 36 -45 17 17 31 13 17 -4 -10 -12 -10 -18
0 -30 10 -12 10 -18 1 -29 -8 -9 -8 -16 -2 -20 7 -5 7 -15 -1 -31 -6 -13 -15
-22 -20 -18 -6 3 -7 -2 -1 -13 8 -17 9 -28 4 -50 0 -3 -6 -2 -11 1 -8 5 -7 11
1 21 10 12 10 15 -1 12 -8 -2 -14 5 -15 17 0 13 -7 20 -20 20 -11 0 -25 3 -30
7 -6 4 -12 -3 -12 -15 -2 -17 0 -19 7 -7 6 9 10 10 10 3 0 -6 -4 -15 -10 -18
-5 -3 -9 -14 -9 -23 1 -15 2 -15 6 1 2 9 9 15 14 11 5 -3 7 -10 3 -15 -3 -5
-2 -9 3 -8 21 4 22 -4 3 -38 -12 -23 -16 -41 -10 -48 5 -6 5 -17 0 -25 -6 -10
-4 -23 7 -40 14 -21 14 -23 1 -12 -12 10 -17 10 -27 -1 -6 -8 -7 -18 -3 -22 4
-5 2 -5 -5 -1 -6 3 -9 16 -7 29 3 12 7 33 10 47 2 14 6 34 8 45 3 11 5 26 5
33 1 7 6 10 11 7 6 -3 10 -1 10 4 0 6 -5 11 -10 11 -12 0 -30 -41 -23 -52 2
-5 -1 -8 -7 -8 -7 0 -9 8 -4 23 9 27 11 117 3 122 -5 4 -4 100 1 100 10 0 5
55 -7 75 -14 24 -14 24 1 5 9 -11 21 -20 26 -20z m47 -189 c-3 -6 -11 -9 -18
-8 -8 2 -10 0 -6 -5 5 -4 13 -8 18 -8 5 0 8 -3 7 -6 -2 -4 5 -16 15 -27 15
-17 16 -20 3 -25 -17 -7 -31 8 -22 22 3 4 -3 16 -14 26 -21 19 -18 42 6 42 8
0 13 -5 11 -11z m-142 -135 c3 -5 2 -12 -3 -15 -5 -3 -9 1 -9 9 0 17 3 19 12
6z m-18 -223 c-3 -8 -6 -5 -6 6 -1 11 2 17 5 13 3 -3 4 -12 1 -19z m-1282
-168 c4 -6 3 -10 -2 -9 -4 1 -10 0 -13 -1 -19 -7 -39 -7 -34 1 3 5 9 7 14 4 5
-3 11 -1 15 5 8 13 12 13 20 0z m850 -216 c27 -51 43 -90 38 -95 -10 -10 -20
6 -48 74 -8 20 -22 53 -30 72 -27 61 -8 38 40 -51z m-918 61 c0 -8 -4 -12 -9
-9 -5 3 -6 10 -3 15 9 13 12 11 12 -6z m-82 -12 c-2 -10 -4 -19 -4 -21 -1 -2
-6 0 -11 3 -8 5 -7 11 1 21 15 18 18 18 14 -3z m35 -107 c0 -2 -8 -10 -17 -17
-16 -13 -17 -12 -4 4 13 16 21 21 21 13z m-80 -16 c0 -5 -5 -10 -11 -10 -5 0
-7 5 -4 10 3 6 8 10 11 10 2 0 4 -4 4 -10z m1416 -52 c19 -37 12 -85 -18 -123
l-22 -28 22 -36 c87 -142 155 -305 196 -469 34 -133 42 -192 26 -192 -7 0 -34
-16 -61 -36 l-49 -36 -10 27 c-6 15 -15 59 -20 97 -20 137 -120 392 -231 589
-58 103 -80 159 -63 159 4 0 30 -15 58 -33 59 -39 114 -62 123 -53 12 11 19
81 12 123 -9 64 7 68 37 11z m126 7 c7 -16 7 -29 0 -41 -8 -14 -5 -28 14 -60
55 -94 140 -403 159 -579 38 -347 39 -385 15 -385 -12 0 -17 24 -25 115 -4 39
-22 131 -40 205 -18 74 -45 187 -61 250 -29 126 -99 336 -119 360 -11 14 -35
76 -35 89 1 3 7 -5 16 -19 l15 -25 -5 35 c-2 19 -7 45 -11 57 -13 39 59 38 77
-2z m-1542 16 c0 -5 3 -17 7 -27 4 -11 3 -15 -4 -11 -14 9 -24 47 -12 47 5 0
9 -4 9 -9z m430 -65 c0 -8 -10 -13 -25 -13 -20 0 -23 2 -14 13 6 8 18 14 25
14 8 0 14 -6 14 -14z m750 10 c0 -3 -4 -8 -10 -11 -5 -3 -10 -1 -10 4 0 6 5
11 10 11 6 0 10 -2 10 -4z m2815 -537 c102 -38 178 -131 211 -258 20 -80 12
-142 -31 -236 -22 -50 -46 -83 -81 -114 -80 -71 -116 -85 -214 -86 -80 0 -92
3 -162 38 -86 42 -137 87 -163 141 -10 20 -22 33 -28 29 -6 -4 -7 -1 -3 6 5 7
0 21 -11 33 -10 12 -12 18 -5 14 12 -7 12 -4 1 15 -7 13 -14 30 -15 38 -2 8
-9 18 -16 22 -7 5 -8 9 -3 9 6 0 11 14 10 30 0 29 -14 43 -16 18 -5 -60 -7
-73 -8 -73 -8 0 -7 -36 0 -41 5 -3 9 -11 9 -17 0 -8 -3 -8 -9 1 -6 10 -10 9
-14 -7 -3 -12 -1 -19 5 -15 5 3 4 -3 -4 -15 -7 -12 -16 -21 -21 -21 -4 0 -6
-4 -3 -9 9 -13 -58 -84 -100 -106 -22 -11 -60 -32 -86 -48 -65 -39 -151 -53
-213 -35 -16 5 -37 11 -46 13 -94 21 -209 144 -228 245 -6 29 -5 148 1 170 14
53 81 133 148 175 85 54 193 73 284 50 45 -12 108 -12 152 -2 22 5 86 10 117
8 12 -1 16 -5 11 -13 -6 -10 -5 -10 8 -1 20 17 31 4 16 -16 -7 -9 -2 -7 11 4
21 19 24 19 35 3 7 -10 16 -15 19 -12 3 3 3 -5 0 -18 -6 -19 -4 -21 9 -11 11
10 17 10 26 1 9 -9 18 -7 39 10 131 104 242 128 368 81z m-2059 -121 c4 -6 3
-8 -4 -4 -6 3 -13 2 -16 -2 -6 -10 40 -10 50 1 4 4 13 -1 21 -11 10 -13 12
-13 8 -2 -4 11 1 16 15 17 13 1 18 -2 13 -10 -5 -9 -2 -8 9 0 8 7 18 10 22 6
10 -11 37 -12 30 -2 -3 5 2 9 11 9 10 0 14 -5 9 -12 -6 -10 -4 -10 7 0 16 15
33 16 23 0 -5 -7 -3 -8 7 -2 20 12 38 14 45 3 3 -5 10 -6 16 -3 7 5 9 2 6 -8
-4 -8 0 -15 8 -15 7 0 11 4 8 9 -3 5 7 7 22 5 15 -2 30 -10 32 -18 3 -11 1
-11 -7 1 -7 9 -11 10 -11 3 0 -20 20 -25 27 -7 6 16 7 16 14 -2 7 -18 8 -18 9
1 1 19 2 18 10 -2 6 -15 15 -21 25 -17 8 3 13 9 10 13 -2 4 2 8 9 8 7 0 13 -6
13 -13 0 -7 -4 -11 -8 -8 -4 2 -10 1 -13 -4 -2 -4 6 -8 19 -8 13 0 22 3 20 6
-2 4 2 7 10 7 7 0 12 -8 10 -19 -2 -10 0 -16 4 -13 12 7 33 -20 23 -30 -4 -5
-1 -5 6 -1 7 4 10 12 7 17 -4 5 -1 9 5 9 6 0 9 4 6 8 -3 5 1 9 9 9 8 0 13 -5
12 -11 -1 -5 3 -10 10 -11 6 0 15 -4 20 -9 5 -6 2 -6 -7 -1 -8 5 -12 4 -7 0
10 -11 37 -15 37 -6 0 4 -5 12 -10 17 -7 7 -6 11 4 11 8 0 15 -3 14 -6 -3 -29
3 -33 26 -17 23 15 25 15 21 -4 -2 -11 0 -22 6 -25 8 -6 13 8 10 28 -1 5 3 6
9 2 7 -4 7 -12 0 -25 -15 -27 -12 -34 7 -19 15 12 16 12 8 -1 -6 -8 -10 -18
-10 -22 0 -3 -4 -10 -8 -15 -5 -4 -7 -3 -5 2 2 6 -1 11 -7 13 -5 1 -10 -2 -10
-8 0 -5 -3 -9 -7 -7 -4 1 -14 -7 -22 -18 -9 -11 -16 -15 -16 -10 0 6 -5 3 -10
-5 -8 -11 -9 -8 -6 12 3 15 0 30 -5 34 -5 3 -7 9 -5 13 3 4 -1 8 -9 8 -12 0
-12 -3 -3 -15 19 -22 18 -41 -3 -47 -10 -4 -20 -11 -20 -16 -1 -5 -2 -13 -3
-18 0 -5 -4 -13 -8 -16 -4 -4 -5 5 -3 21 l5 29 -14 -25 c-8 -14 -12 -29 -9
-35 4 -5 3 -7 -2 -3 -4 4 -15 2 -24 -4 -11 -9 -10 -6 2 9 12 14 15 23 7 28 -6
4 -9 1 -8 -7 2 -7 -3 -12 -10 -10 -6 1 -11 -1 -11 -5 1 -5 1 -17 -1 -28 l-1
-20 -9 20 -9 20 -1 -20 c-2 -11 -2 -24 -1 -28 1 -5 -3 -6 -8 -3 -5 4 -12 0
-14 -6 -4 -9 -6 -10 -6 -1 -1 6 4 15 9 18 6 3 10 12 10 18 0 7 -5 4 -11 -6 -6
-9 -14 -15 -20 -12 -5 3 -6 -1 -3 -10 4 -8 1 -21 -5 -29 -6 -7 -7 -16 -3 -20
4 -4 0 -6 -8 -4 -8 2 -14 -3 -12 -10 1 -8 -2 -11 -7 -8 -5 4 -17 -1 -25 -10
-9 -8 -16 -12 -16 -7 0 4 16 21 35 36 19 15 35 33 34 40 0 9 -2 9 -6 -1 -2 -6
-10 -9 -15 -6 -6 4 -8 2 -4 -4 3 -6 -7 -20 -23 -31 -18 -13 -31 -32 -33 -49
-2 -19 -8 -26 -20 -24 -9 1 -23 -7 -31 -18 -7 -11 -16 -17 -20 -14 -3 3 -3 -5
0 -18 4 -19 3 -20 -7 -8 -10 12 -11 11 -6 -10 5 -24 5 -25 -11 -5 -15 20 -15
19 -10 -4 4 -17 3 -21 -5 -13 -8 8 -17 8 -32 0 -12 -6 -23 -10 -26 -9 -3 1 -8
-8 -12 -21 -5 -20 -6 -21 -7 -3 -1 14 -4 16 -9 7 -11 -17 -55 -26 -45 -9 4 7
0 6 -10 -2 -9 -7 -17 -10 -17 -7 0 4 -5 4 -12 0 -22 -14 -68 -10 -69 6 -1 8
-2 74 -4 145 -1 108 -8 236 -20 375 -1 14 2 31 8 38 5 6 6 12 1 12 -4 0 1 7
12 15 23 18 21 17 30 3z m514 -88 c0 -5 -2 -10 -4 -10 -3 0 -8 5 -11 10 -3 6
-1 10 4 10 6 0 11 -4 11 -10z m-1960 -190 c0 -15 9 -18 50 -18 28 -1 55 -4 61
-8 8 -5 9 6 4 37 -7 39 -6 42 9 30 17 -14 59 -141 50 -151 -3 -3 -12 4 -20 14
-11 16 -14 17 -19 4 -4 -9 -16 -16 -28 -17 -12 0 -39 -3 -60 -7 -32 -5 -42 -2
-63 17 -18 16 -23 30 -19 46 3 12 -3 38 -12 58 -15 31 -15 37 -3 46 18 11 50
-22 50 -51z m205 -56 c4 -25 2 -23 -15 11 -11 22 -19 49 -19 60 0 15 4 12 14
-11 8 -17 16 -44 20 -60z m2781 71 c-1 -8 -5 -17 -8 -21 -5 -4 -4 16 1 34 3 9
9 -1 7 -13z m-2243 -32 c7 -42 6 -46 -15 -38 -14 6 -22 50 -11 68 10 17 21 5
26 -30z m-489 -33 l7 -25 -20 24 c-25 27 -31 66 -7 41 8 -8 17 -26 20 -40z
m796 0 c0 -11 -4 -20 -10 -20 -5 0 -10 9 -10 20 0 11 5 20 10 20 6 0 10 -9 10
-20z m-2178 -27 c37 -42 49 -182 27 -312 -16 -90 -42 -139 -84 -157 -68 -28
-87 7 -52 93 30 70 37 118 52 333 1 19 3 41 4 48 2 18 35 15 53 -5z m747 -22
c12 -10 24 -30 27 -43 25 -102 26 -216 5 -296 -15 -55 -77 -119 -125 -127 -67
-13 -70 6 -21 108 32 68 35 79 39 197 6 172 22 207 75 161z m1511 -15 c0 -8
-4 -18 -10 -21 -5 -3 -10 3 -10 14 0 12 5 21 10 21 6 0 10 -6 10 -14z m-600
-76 c0 -5 -5 -10 -11 -10 -5 0 -7 5 -4 10 3 6 8 10 11 10 2 0 4 -4 4 -10z
m1198 -25 c-6 -14 -13 -23 -15 -21 -5 5 15 46 22 46 3 0 -1 -11 -7 -25z m-121
-87 c-3 -8 -6 -5 -6 6 -1 11 2 17 5 13 3 -3 4 -12 1 -19z m43 17 c0 -2 -6 -8
-13 -14 -10 -8 -14 -7 -14 2 0 8 6 14 14 14 7 0 13 -1 13 -2z m-1572 -17 c-6
-18 -25 -20 -31 -3 -5 10 0 15 14 15 12 0 19 -5 17 -12z m1335 -182 c1 -78 -1
-90 -19 -105 -12 -9 -26 -27 -33 -39 -21 -40 -32 -14 -26 61 9 100 23 168 42
196 l16 25 10 -25 c5 -13 10 -64 10 -113z m-343 94 c0 -5 -2 -10 -4 -10 -3 0
-8 5 -11 10 -3 6 -1 10 4 10 6 0 11 -4 11 -10z m-935 -170 c3 -5 1 -10 -4 -10
-6 0 -11 5 -11 10 0 6 2 10 4 10 3 0 8 -4 11 -10z m1158 -157 c8 -16 19 -61
26 -101 10 -66 9 -81 -8 -140 -11 -37 -22 -76 -24 -87 -2 -11 -6 -27 -9 -35
-3 -8 -20 -58 -38 -110 -28 -85 -65 -176 -106 -265 -28 -60 -33 -93 -18 -106
8 -6 14 -9 14 -5 0 3 12 1 26 -4 18 -7 23 -7 18 2 -4 7 -3 8 5 4 17 -11 85
-15 321 -21 222 -5 299 -9 400 -20 36 -3 90 -8 120 -11 67 -5 81 -7 215 -29
11 -1 40 -9 65 -16 25 -7 48 -12 53 -11 4 1 7 -3 7 -9 0 -5 4 -8 9 -4 5 3 12
1 15 -4 4 -5 2 -12 -4 -16 -6 -4 -7 -11 -4 -17 4 -7 2 -8 -4 -4 -7 4 -12 2
-12 -5 0 -7 -3 -9 -6 -6 -4 4 -1 14 7 24 8 9 9 14 2 10 -6 -4 -13 -1 -16 5 -3
7 -4 0 -3 -17 1 -16 -1 -35 -6 -42 -6 -7 -4 -14 3 -19 7 -4 9 -3 5 4 -3 6 -2
13 4 17 6 4 10 -6 10 -24 0 -16 -5 -33 -10 -36 -8 -5 -7 -12 2 -23 11 -14 10
-15 -7 -8 -15 5 -17 4 -9 -4 13 -13 7 -53 -7 -44 -5 3 -6 -3 -2 -12 5 -13 3
-15 -8 -9 -8 4 -11 5 -7 0 4 -4 3 -16 -3 -27 -9 -16 -13 -17 -27 -6 -15 12
-16 11 -3 -4 12 -16 9 -22 -12 -19 -4 1 -2 -8 5 -18 7 -11 15 -18 19 -16 3 3
4 -7 1 -22 -4 -19 -2 -24 8 -18 9 6 10 3 1 -14 -9 -16 -9 -21 1 -21 9 0 10 -3
2 -8 -6 -4 -10 -15 -8 -25 1 -9 -2 -15 -7 -11 -5 3 -9 -2 -9 -11 0 -10 5 -13
12 -9 7 5 8 3 3 -6 -6 -10 -11 -9 -22 5 -10 15 -13 15 -13 4 0 -8 6 -21 13
-28 10 -10 9 -12 -2 -9 -7 2 -16 -3 -19 -11 -3 -9 0 -11 9 -6 8 5 11 5 7 0 -4
-4 -2 -15 5 -23 6 -9 7 -13 2 -10 -6 4 -17 3 -25 -3 -12 -7 -12 -9 3 -9 12 0
16 -4 11 -12 -5 -8 0 -7 11 2 17 14 18 14 5 -10 -13 -24 -12 -24 5 -10 11 9
16 10 11 3 -5 -9 -1 -13 11 -13 15 0 16 -2 3 -10 -10 -6 -11 -10 -2 -10 6 0
11 -4 10 -9 -2 -5 8 -23 20 -41 16 -22 29 -30 40 -25 14 5 14 4 5 -6 -17 -18
4 -44 23 -29 9 9 11 7 7 -8 -2 -10 5 -34 17 -53 18 -29 21 -30 16 -9 -3 14 -3
19 0 11 5 -11 8 -11 16 0 7 10 8 8 3 -6 -4 -11 -8 -25 -9 -32 -1 -7 -6 -16
-11 -20 -4 -4 -6 -3 -3 2 3 6 0 16 -8 23 -8 7 -14 11 -14 8 0 -2 -3 -13 -6
-23 -5 -15 -4 -16 6 -3 10 13 11 13 7 0 -2 -8 -10 -14 -16 -12 -6 1 -11 -4
-11 -10 0 -9 -4 -8 -10 2 -5 8 -10 20 -10 25 0 6 5 3 10 -5 6 -9 10 -10 10 -3
0 22 -19 24 -30 3 -10 -18 -14 -19 -28 -8 -15 12 -16 11 -3 -5 11 -14 17 -15
30 -5 9 7 13 8 9 4 -4 -5 -2 -16 4 -25 10 -13 10 -14 -2 -4 -19 18 -44 -15
-27 -36 9 -11 5 -10 -12 2 -17 11 -29 13 -42 6 -12 -6 -20 -5 -25 3 -5 7 -3 8
6 3 9 -5 11 -4 6 3 -5 8 -1 10 11 6 15 -5 15 -4 3 4 -8 6 -19 8 -25 4 -5 -4
-23 -8 -40 -9 -50 -3 -67 -9 -77 -27 -8 -13 -13 -15 -24 -5 -11 9 -15 8 -20
-4 -3 -9 -3 -21 1 -27 4 -6 1 -9 -7 -8 -7 2 -12 -3 -10 -10 1 -8 -2 -11 -8 -7
-6 3 -7 12 -3 18 4 7 8 18 9 25 2 10 -1 10 -11 2 -22 -18 -5 -77 18 -63 9 5 9
3 0 -8 -16 -19 -14 -31 5 -53 9 -11 11 -16 4 -12 -10 6 -12 1 -9 -23 3 -17 1
-33 -4 -37 -5 -3 -7 -9 -4 -14 3 -5 1 -11 -5 -15 -6 -4 -7 -12 -3 -18 4 -7 0
-6 -10 2 -9 7 -17 11 -17 7 0 -27 -19 -48 -34 -39 -21 13 -38 12 -32 -3 9 -23
-4 -16 -15 9 -9 21 -9 20 -6 -5 3 -17 -2 -33 -11 -40 -10 -8 -13 -9 -9 -2 4 7
0 17 -9 24 -13 12 -14 10 -10 -14 4 -25 3 -26 -11 -14 -14 11 -16 11 -10 -4 3
-10 2 -20 -4 -23 -5 -4 -8 -3 -7 2 2 4 -1 8 -7 8 -5 0 -8 -4 -7 -10 2 -5 0 -6
-4 -2 -12 12 -13 36 -2 44 7 4 8 1 3 -6 -6 -10 -3 -11 14 -2 11 7 20 19 20 29
-1 16 -2 16 -6 0 -2 -10 -9 -18 -14 -18 -6 0 -7 6 -3 13 6 9 5 9 -8 0 -8 -7
-18 -9 -22 -5 -4 4 -7 2 -6 -3 5 -21 -1 -42 -15 -61 -13 -16 -14 -16 -9 -1 5
13 2 16 -12 11 -15 -5 -16 -4 -4 4 11 8 6 10 -20 8 -19 -1 -35 -9 -38 -17 -3
-11 -1 -11 7 1 10 13 11 13 11 0 0 -13 1 -13 10 0 7 12 9 10 8 -6 -3 -28 -29
-24 -46 7 -13 24 -13 24 -9 -6 5 -27 4 -28 -9 -10 -8 10 -14 15 -15 9 0 -5 -4
0 -9 11 -7 16 -9 17 -9 3 -1 -9 -5 -19 -10 -22 -5 -4 -7 4 -4 16 5 21 4 22 -8
5 -13 -17 -15 -17 -31 2 -9 11 -13 23 -10 27 4 5 0 3 -8 -3 -8 -6 -23 -9 -33
-8 -9 2 -15 -1 -12 -5 3 -5 0 -12 -6 -16 -7 -4 -9 -3 -6 3 4 6 0 19 -8 29 -13
18 -14 18 -9 -6 4 -25 4 -25 -7 -2 -7 12 -16 22 -21 22 -5 0 -6 -6 -3 -12 4
-7 -1 -4 -9 6 -10 13 -16 15 -16 6 0 -8 -8 -4 -20 10 -11 13 -20 19 -20 14 0
-6 6 -16 13 -24 10 -12 9 -12 -4 -2 -9 6 -19 9 -22 6 -4 -4 -5 3 -2 14 3 16
-1 20 -16 17 -10 -2 -23 -6 -28 -9 -5 -3 -11 3 -14 13 -4 18 -40 23 -64 8 -6
-4 -15 -2 -19 4 -5 8 -3 9 6 4 9 -5 11 -4 6 4 -6 9 -11 9 -21 1 -10 -8 -15 -8
-21 1 -5 8 -3 9 6 4 9 -5 11 -4 6 4 -6 9 -11 9 -21 1 -10 -8 -15 -8 -21 1 -5
8 -3 9 6 4 9 -5 11 -4 6 4 -6 9 -11 9 -21 1 -9 -7 -16 -6 -25 5 -7 9 -19 14
-26 11 -7 -3 -18 2 -25 10 -8 10 -15 12 -22 5 -7 -7 -15 -7 -24 0 -10 9 -13 8
-13 -2 0 -11 -2 -11 -10 1 -5 8 -10 11 -10 5 0 -5 -5 -3 -10 5 -6 9 -10 10
-10 3 0 -8 -9 -9 -30 -3 -16 5 -30 7 -30 5 0 -3 -11 0 -25 5 -17 6 -25 6 -25
-1 0 -6 -5 -7 -11 -3 -12 7 -41 11 -134 18 -85 6 -88 7 -102 45 -19 55 -25
104 -25 228 0 181 13 223 177 555 58 120 106 220 106 222 0 3 18 43 41 88 23
46 41 89 41 96 0 6 4 12 8 12 8 0 24 40 21 53 -1 4 2 7 8 7 6 0 9 3 9 8 -1 4
-1 9 0 12 1 3 4 32 6 65 2 33 14 96 25 140 12 44 26 98 31 120 26 117 30 293
7 330 -13 22 13 55 64 79 29 14 54 25 55 25 1 1 9 -11 16 -26z m-3458 -532 c3
-5 2 -12 -3 -15 -5 -3 -9 1 -9 9 0 17 3 19 12 6z m-55 -25 c0 -3 -4 -8 -10
-11 -5 -3 -10 -1 -10 4 0 6 5 11 10 11 6 0 10 -2 10 -4z m-15 -67 c-5 -14 -3
-19 3 -15 6 3 14 1 18 -5 4 -7 3 -9 -4 -5 -6 3 -13 2 -17 -4 -13 -21 -24 1
-13 25 14 31 22 33 13 4z m4611 -471 c-3 -18 -3 -27 0 -20 8 17 21 15 21 -3 0
-8 -4 -12 -8 -9 -12 7 -31 -35 -24 -54 3 -9 3 -13 -1 -9 -9 9 -45 -44 -38 -55
3 -5 0 -7 -8 -6 -7 2 -12 -2 -11 -8 1 -6 -4 -11 -12 -11 -8 0 -3 13 15 36 34
43 62 108 50 116 -7 4 9 55 18 55 2 0 1 -15 -2 -32z m-6 -112 c0 -2 -8 -10
-17 -17 -16 -13 -17 -12 -4 4 13 16 21 21 21 13z m-22 -395 c-2 -19 3 -32 10
-27 5 3 9 -1 9 -9 0 -20 -3 -19 -26 13 -15 22 -17 29 -6 29 8 0 14 -3 13 -6z
m52 -81 c0 -5 -2 -10 -4 -10 -3 0 -8 5 -11 10 -3 6 -1 10 4 10 6 0 11 -4 11
-10z m40 -35 c5 3 12 0 16 -6 4 -8 3 -9 -4 -5 -7 4 -12 2 -12 -4 0 -6 -4 -8
-10 -5 -5 3 -10 14 -9 23 0 11 2 12 6 4 2 -6 9 -10 13 -7z m58 -50 c-3 -3 -9
2 -12 12 -6 14 -5 15 5 6 7 -7 10 -15 7 -18z m5 -28 c4 3 7 4 7 0 0 -18 -21
-14 -30 5 -10 21 -10 21 3 6 8 -10 17 -15 20 -11z m32 6 c-2 -10 -4 -19 -5
-20 -2 -2 -3 -7 -4 -12 0 -5 -4 -12 -8 -16 -5 -6 -3 25 2 33 2 1 4 7 5 12 1 6
3 12 4 15 3 14 9 3 6 -12z m-55 -27 c0 -2 -8 -10 -17 -17 -16 -13 -17 -12 -4
4 13 16 21 21 21 13z m-3012 -85 c35 -22 -69 -51 -109 -30 -10 5 -21 3 -29 -4
-12 -10 -12 -9 -1 5 7 9 20 16 29 16 22 -1 73 10 80 17 7 7 15 6 30 -4z m1883
-274 c-10 -9 -11 -8 -5 6 3 10 9 15 12 12 3 -3 0 -11 -7 -18z m26 1 c-3 -8 -6
-5 -6 6 -1 11 2 17 5 13 3 -3 4 -12 1 -19z m259 -77 c1 -6 0 -7 -3 -1 -2 5 -9
8 -13 5 -5 -3 -11 -1 -14 4 -4 5 2 8 11 7 9 -2 18 -8 19 -15z m-323 -756 c9
-21 -9 -27 -24 -8 -10 12 -10 14 -1 9 6 -4 12 -2 12 3 0 16 7 13 13 -4z
m-3790 -10 c-3 -9 -8 -14 -10 -11 -3 3 -2 9 2 15 9 16 15 13 8 -4z m3677 -80
c-7 -9 -15 -13 -19 -10 -3 3 1 10 9 15 21 14 24 12 10 -5z m-3707 -16 c-3 -12
-1 -24 4 -28 7 -4 6 -10 -3 -18 -8 -8 -15 -9 -19 -3 -3 6 0 10 7 10 10 0 10 2
-1 9 -10 7 -11 13 -2 30 15 27 21 27 14 0z m24 -4 c0 -8 -4 -12 -9 -9 -5 3 -6
10 -3 15 9 13 12 11 12 -6z m4271 -18 c6 -5 12 -18 11 -30 -1 -21 -2 -19 -15
23 -4 11 -7 12 -13 1 -7 -10 -9 -10 -14 2 -6 16 9 17 31 4z m60 -45 c15 12 16
11 3 -5 -10 -13 -17 -15 -27 -6 -8 6 -14 17 -14 23 0 6 5 3 11 -7 9 -15 13
-16 27 -5z m-4383 -12 c3 -5 -1 -10 -10 -10 -9 0 -13 5 -10 10 3 6 8 10 10 10
2 0 7 -4 10 -10z m29 -38 c3 -5 -1 -9 -9 -9 -8 0 -12 4 -9 9 3 4 7 8 9 8 2 0
6 -4 9 -8z m-94 -22 c0 -5 -5 -10 -11 -10 -5 0 -7 5 -4 10 3 6 8 10 11 10 2 0
4 -4 4 -10z m-3 -26 c-3 -3 -12 -4 -19 -1 -8 3 -5 6 6 6 11 1 17 -2 13 -5z
m-27 -54 c0 -5 -5 -10 -11 -10 -5 0 -7 5 -4 10 3 6 8 10 11 10 2 0 4 -4 4 -10z
m-30 -15 c0 -8 -4 -15 -10 -15 -5 0 -7 7 -4 15 4 8 8 15 10 15 2 0 4 -7 4 -15z
m9 -39 c9 -11 9 -16 -1 -22 -7 -4 -10 -4 -6 1 4 4 0 14 -10 21 -9 7 -12 14 -6
14 6 0 17 -6 23 -14z m-16 -43 c-7 -2 -19 -2 -25 0 -7 3 -2 5 12 5 14 0 19 -2
13 -5z m3882 -42 c-15 -14 -31 -6 -31 15 0 22 1 22 18 7 10 -9 16 -19 13 -22z
m-3870 -1 c3 -6 -1 -7 -9 -4 -18 7 -21 14 -7 14 6 0 13 -4 16 -10z m-87 -111
c-1 -17 -4 -25 -8 -18 -5 6 -6 19 -5 28 5 21 4 21 9 21 3 0 4 -14 4 -31z m-58
-109 c-6 -11 -13 -20 -16 -20 -2 0 0 9 6 20 6 11 13 20 16 20 2 0 0 -9 -6 -20z
m4770 -1 c0 -6 -4 -7 -10 -4 -5 3 -10 11 -10 16 0 6 5 7 10 4 6 -3 10 -11 10
-16z m-4770 -97 c0 -4 -9 -8 -19 -8 -11 0 -17 4 -15 8 3 4 12 8 20 8 8 0 14
-4 14 -8z m0 -61 c0 -4 -6 -8 -13 -8 -8 0 -14 6 -14 13 0 7 6 10 14 7 7 -3 13
-8 13 -12z"/>
<path d="M9185 9061 c-3 -5 -2 -12 3 -15 5 -3 9 1 9 9 0 17 -3 19 -12 6z"/>
<path d="M9193 9015 c0 -8 4 -12 9 -9 5 3 6 10 3 15 -9 13 -12 11 -12 -6z"/>
<path d="M9765 7450 c10 -11 20 -20 23 -20 3 0 -3 9 -13 20 -10 11 -20 20 -23
20 -3 0 3 -9 13 -20z"/>
<path d="M9734 7141 c8 -12 -19 -33 -29 -23 -5 4 -5 1 -1 -6 6 -11 12 -10 27
4 16 14 18 34 3 34 -3 0 -3 -4 0 -9z"/>
<path d="M9415 7111 c-3 -5 -2 -12 3 -15 5 -3 9 1 9 9 0 17 -3 19 -12 6z"/>
<path d="M7709 6755 c-1 0 -8 -31 -12 -52 -2 -10 -8 -16 -13 -13 -5 3 -8 9 -6
13 1 5 -2 6 -7 2 -6 -3 -15 4 -21 16 -8 14 -15 18 -22 11 -6 -6 -7 -16 -2 -24
5 -7 9 -17 9 -23 0 -5 14 -10 30 -10 33 0 58 -12 51 -24 -3 -4 1 -8 9 -8 13 0
12 4 -2 19 -9 10 -12 18 -8 18 5 0 4 5 -2 11 -13 13 -6 42 8 33 5 -3 8 -1 7 4
-2 6 2 9 7 9 6 -1 9 -10 9 -20 -1 -10 1 -15 5 -12 3 4 6 12 6 18 1 7 6 11 11
10 6 -1 11 4 11 10 0 9 -54 19 -68 12z m-56 -51 c14 -17 14 -21 2 -21 -8 0
-12 4 -9 8 2 4 0 10 -6 14 -5 3 -10 11 -10 17 0 6 1 9 3 7 1 -2 10 -13 20 -25z"/>
<path d="M7761 6698 c-7 -11 -8 -17 -2 -13 6 3 11 2 11 -4 0 -19 -19 -21 -29
-4 -6 10 -11 13 -11 7 0 -6 7 -17 15 -24 8 -7 12 -17 8 -23 -3 -6 -1 -7 6 -3
6 4 9 11 6 16 -3 5 -1 11 5 15 5 3 10 -3 10 -14 0 -11 -4 -23 -10 -26 -5 -3
-10 -12 -9 -18 0 -9 2 -8 6 1 2 6 8 10 13 7 8 -5 7 91 -1 100 -3 2 -11 -5 -18
-17z"/>
<path d="M7691 6644 c0 -11 3 -14 6 -6 3 7 2 16 -1 19 -3 4 -6 -2 -5 -13z"/>
<path d="M7624 6600 c0 -13 4 -16 10 -10 7 7 7 13 0 20 -6 6 -10 3 -10 -10z"/>
<path d="M7589 6541 c25 -35 26 -41 4 -41 -15 0 -14 -3 5 -22 l22 -22 -27 -28
c-22 -23 -25 -30 -13 -41 10 -10 12 -9 7 5 -3 10 -3 19 1 22 4 3 8 -4 9 -14 1
-11 -3 -23 -9 -26 -7 -4 -6 -9 2 -14 9 -5 9 -13 2 -26 -7 -13 -6 -24 5 -41 12
-19 13 -26 3 -38 -7 -8 -9 -15 -5 -15 4 0 3 -6 -4 -13 -8 -10 -8 -16 1 -25 8
-8 5 -18 -11 -38 -23 -29 -16 -49 17 -49 12 0 16 -7 14 -25 l-4 -25 22 21 c19
18 20 25 10 44 -6 12 -9 28 -6 36 3 8 2 12 -3 9 -13 -8 -24 12 -14 28 14 23
25 89 13 82 -17 -10 -20 13 -6 46 7 19 11 50 9 69 -2 19 -5 51 -7 70 -5 44
-27 94 -45 98 -8 2 -5 -8 8 -27z m28 -56 c0 -8 -4 -12 -9 -9 -5 3 -6 10 -3 15
9 13 12 11 12 -6z m6 -106 c-1 -25 -9 -49 -19 -58 -15 -14 -16 -14 -6 -1 6 9
11 25 11 35 -1 48 5 85 10 76 4 -6 6 -29 4 -52z m2 -126 c-4 -10 -8 -23 -9
-30 -1 -7 -5 -15 -8 -19 -8 -7 -5 12 6 44 4 12 10 22 13 22 3 0 2 -8 -2 -17z
m-1 -116 c1 -7 5 -17 9 -24 4 -6 3 -15 -3 -18 -6 -4 -10 -3 -9 2 1 4 0 11 -1
16 -4 12 -7 26 -9 38 0 5 -6 7 -11 4 -6 -4 -8 -10 -6 -14 3 -4 -1 -8 -9 -8
-10 0 -10 5 3 23 14 18 18 20 26 7 4 -8 9 -20 10 -26z"/>
<path d="M7660 6152 c0 -12 3 -12 15 -2 8 7 15 13 15 15 0 1 -7 2 -15 2 -8 0
-15 -7 -15 -15z"/>
<path d="M7665 6583 c3 -7 3 -19 -2 -25 -10 -18 -11 -98 -1 -92 5 3 6 9 3 14
-3 5 -1 11 5 15 9 5 14 -6 12 -26 -1 -3 5 -6 13 -6 11 0 11 4 1 21 -14 26 -14
54 3 86 10 21 10 23 -1 8 -13 -15 -15 -15 -26 0 -7 9 -10 11 -7 5z m13 -48 c1
-13 -2 -27 -7 -30 -7 -4 -8 29 -2 53 3 9 7 -2 9 -23z"/>
<path d="M7729 6533 c-13 -16 -12 -17 4 -4 9 7 17 15 17 17 0 8 -8 3 -21 -13z"/>
<path d="M7740 6515 c-7 -8 -9 -15 -6 -15 4 0 2 -9 -4 -19 -5 -11 -6 -22 -2
-25 5 -3 9 0 10 7 3 33 11 52 22 49 6 -1 9 2 5 8 -8 13 -10 13 -25 -5z"/>
<path d="M7704 6506 c1 -8 5 -18 8 -22 4 -3 5 1 4 10 -1 8 -5 18 -8 22 -4 3
-5 -1 -4 -10z"/>
<path d="M9605 4914 c7 -15 12 -32 11 -38 -2 -6 -1 -8 1 -4 2 4 11 4 19 1 8
-3 14 1 14 8 0 11 3 11 10 -1 5 -8 10 -10 10 -4 0 18 -13 24 -27 13 -10 -9
-15 -5 -24 20 -6 17 -15 31 -19 31 -5 0 -3 -12 5 -26z"/>
<path d="M9605 4839 c-4 -6 -5 -12 -2 -15 2 -3 7 2 10 11 7 17 1 20 -8 4z"/>
<path d="M9579 4784 c-13 -16 -25 -64 -13 -52 3 3 7 14 9 25 1 10 7 17 12 16
5 -1 10 5 10 13 0 18 -2 18 -18 -2z"/>
<path d="M8550 4763 c0 -5 10 -18 23 -29 l22 -19 -20 25 c-11 14 -21 27 -22
29 -2 2 -3 0 -3 -6z"/>
<path d="M8658 4744 c-6 -5 -29 -11 -53 -13 -6 -1 -6 -4 1 -9 14 -9 28 -43 25
-62 -1 -11 1 -10 9 3 6 9 17 14 23 11 7 -4 9 -4 5 1 -4 4 -3 14 3 22 8 9 8 17
0 26 -6 8 -8 17 -4 20 3 4 4 7 1 7 -2 0 -7 -3 -10 -6z m8 -25 c7 -12 -15 -41
-26 -34 -4 3 -10 13 -12 23 -5 20 27 29 38 11z"/>
<path d="M8643 4705 c0 -8 4 -12 9 -9 4 3 8 9 8 15 0 5 -4 9 -8 9 -5 0 -9 -7
-9 -15z"/>
<path d="M8540 4736 c0 -2 8 -10 18 -17 15 -13 16 -12 3 4 -13 16 -21 21 -21
13z"/>
<path d="M8321 4424 c0 -11 3 -14 6 -6 3 7 2 16 -1 19 -3 4 -6 -2 -5 -13z"/>
<path d="M8830 2588 c14 -17 13 -51 -2 -42 -7 4 -8 3 -4 -5 4 -6 11 -9 16 -6
12 8 7 -48 -5 -58 -6 -5 -4 -7 5 -4 21 5 18 94 -4 113 -9 8 -11 9 -6 2z"/>
<path d="M8800 2425 c7 -8 7 -15 1 -19 -5 -3 -11 0 -14 6 -3 7 -4 3 -4 -9 l1
-23 23 22 c24 22 23 30 -3 34 -11 2 -12 -1 -4 -11z"/>
<path d="M8801 2376 c-10 -12 -8 -13 8 -9 12 3 18 9 15 14 -7 12 -10 11 -23
-5z"/>
<path d="M8893 2028 c-1 -10 3 -18 9 -16 18 6 21 25 5 31 -8 3 -13 -3 -14 -15z"/>
<path d="M8638 1886 c10 -14 9 -27 -2 -45 -6 -10 -5 -12 2 -7 7 4 12 1 12 -8
0 -27 -2 -31 -13 -28 -6 2 -6 -2 1 -11 15 -18 -3 -36 -31 -32 -14 3 -16 0 -7
-10 7 -8 7 -15 1 -19 -5 -3 -12 0 -14 6 -4 9 -6 9 -6 -1 -1 -11 -5 -10 -17 5
-14 18 -15 18 -4 -4 6 -12 15 -20 20 -17 5 3 11 1 15 -5 4 -6 11 -8 16 -4 5 3
7 9 4 14 -5 8 24 37 34 33 3 -2 7 2 7 7 1 6 3 11 4 13 6 6 4 79 -2 83 -4 3 -5
13 -3 23 2 10 -3 18 -11 18 -8 0 -10 -5 -6 -11z"/>
<path d="M8516 1711 c-3 -4 1 -17 10 -27 14 -18 15 -18 5 2 -6 12 -7 24 -4 28
3 3 4 6 0 6 -3 0 -8 -4 -11 -9z"/>
<path d="M8396 1653 c5 -5 12 -12 16 -18 4 -6 8 -2 8 8 0 9 -7 17 -17 17 -9 0
-12 -3 -7 -7z"/>
<path d="M8231 1634 c0 -11 3 -14 6 -6 3 7 2 16 -1 19 -3 4 -6 -2 -5 -13z"/>
<path d="M6473 9465 c0 -8 4 -12 9 -9 5 3 6 10 3 15 -9 13 -12 11 -12 -6z"/>
<path d="M6464 9432 c3 -5 0 -13 -6 -15 -9 -4 -10 -6 -1 -6 17 -1 25 16 12 25
-7 4 -9 3 -5 -4z"/>
<path d="M2084 9058 c-4 -5 -13 -7 -21 -4 -8 3 -11 1 -8 -4 3 -6 -1 -10 -9
-10 -9 0 -16 -5 -16 -11 0 -5 -4 -7 -10 -4 -5 3 -10 -1 -10 -10 0 -9 -4 -13
-10 -10 -5 3 -10 -1 -10 -9 0 -9 -5 -16 -12 -16 -6 0 -8 -3 -5 -6 4 -4 -1 -14
-11 -23 -16 -15 -19 -22 -27 -61 -2 -8 -4 -15 -5 -15 -7 0 -6 -36 1 -41 5 -3
7 -9 4 -14 -3 -5 -1 -12 5 -15 8 -5 7 -11 -1 -21 -7 -8 -7 -14 -1 -14 5 0 8
-13 7 -30 -1 -16 2 -30 7 -30 6 0 6 -6 -1 -14 -7 -8 -8 -17 -4 -19 10 -6 10
-48 0 -64 -4 -7 -3 -15 3 -18 8 -5 8 -11 0 -20 -8 -10 -7 -16 7 -24 10 -6 14
-11 8 -11 -11 0 -13 -159 -2 -177 4 -7 3 -14 -3 -18 -6 -4 -8 -11 -4 -16 6
-10 6 -54 1 -137 -1 -23 0 -42 3 -42 7 0 4 -75 -4 -88 -3 -6 -2 -13 4 -17 6
-4 8 -10 6 -14 -3 -4 -6 -27 -7 -52 -1 -24 -7 -50 -13 -58 -8 -11 -8 -13 1 -8
8 5 11 -11 9 -58 -2 -36 1 -68 6 -71 5 -3 5 -11 1 -17 -4 -7 -9 -68 -10 -137
-2 -69 -3 -138 -4 -155 -1 -16 2 -39 7 -49 5 -12 4 -17 -3 -13 -7 4 -8 -7 -3
-33 5 -27 4 -40 -4 -40 -7 0 -7 -3 -1 -8 6 -4 10 -16 10 -27 0 -11 -4 -23 -10
-27 -7 -5 -7 -8 0 -8 6 0 10 -22 10 -49 1 -29 -3 -47 -9 -44 -5 4 -6 1 0 -8
10 -17 15 -370 5 -384 -4 -5 -7 -17 -6 -25 0 -8 -5 -21 -12 -28 -7 -8 -10 -19
-6 -25 12 -19 12 -36 1 -44 -7 -3 -8 -1 -4 5 4 7 2 12 -5 12 -7 0 -9 -10 -7
-24 4 -17 1 -23 -9 -19 -9 3 -11 0 -7 -10 3 -8 0 -18 -7 -23 -8 -5 -10 -3 -4
7 8 12 6 12 -8 0 -19 -15 -23 -26 -6 -15 7 4 10 1 7 -7 -3 -8 -10 -13 -16 -12
-6 2 -9 -3 -6 -11 6 -15 -43 -59 -57 -50 -5 3 -6 -1 -3 -9 3 -8 0 -18 -7 -23
-8 -5 -10 -3 -4 6 6 9 4 11 -4 6 -7 -5 -10 -14 -7 -22 3 -8 2 -13 -2 -13 -19
3 -32 -2 -30 -12 2 -6 -5 -13 -15 -14 -9 -2 -15 1 -11 6 3 5 10 6 16 3 7 -5 8
-2 4 5 -6 9 -13 8 -27 -5 -11 -9 -22 -14 -26 -11 -3 4 -12 2 -20 -4 -7 -6 -13
-8 -13 -3 0 4 -11 -3 -24 -15 -18 -17 -26 -19 -31 -10 -6 8 -4 10 5 4 9 -5 11
-4 6 4 -6 9 -11 9 -22 0 -7 -6 -11 -16 -7 -23 4 -6 -1 -4 -11 4 -19 15 -49 23
-42 11 3 -4 -6 -7 -19 -7 -13 0 -21 4 -19 8 3 5 10 5 16 2 7 -4 8 -2 4 5 -6 9
-11 9 -23 -1 -21 -17 -55 -16 -71 2 -10 11 -12 12 -6 1 5 -11 3 -13 -9 -8 -10
4 -17 1 -17 -5 0 -7 -6 -3 -14 8 -8 10 -19 20 -25 20 -6 1 -13 3 -16 4 -13 7
-31 5 -42 -3 -9 -7 -13 -4 -13 9 0 16 -2 17 -10 4 -7 -11 -10 -11 -10 -2 0 7
-4 11 -9 8 -4 -3 -16 3 -26 14 -9 10 -24 16 -32 13 -8 -3 -28 5 -45 17 -17 12
-27 16 -23 9 8 -12 6 -12 -8 0 -9 7 -17 20 -17 28 0 8 -14 19 -30 24 -17 6
-30 15 -30 21 0 5 -5 6 -12 2 -6 -4 -8 -3 -5 3 4 6 -4 22 -18 37 -13 14 -21
26 -18 26 3 0 0 7 -7 15 -7 8 -17 12 -23 8 -5 -3 -7 -1 -3 5 3 6 1 23 -5 39
-17 45 -22 108 -23 273 0 139 3 193 19 350 3 25 14 81 25 125 23 89 30 156 16
147 -5 -3 -7 2 -3 11 3 10 2 17 -4 17 -6 0 -7 5 -4 10 3 6 1 10 -5 10 -6 0 -9
4 -6 9 3 5 -3 11 -14 14 -12 3 -20 14 -20 27 0 11 -4 19 -9 16 -5 -4 -11 -2
-13 3 -1 5 -12 11 -23 13 -11 1 -25 10 -32 18 -7 8 -13 11 -13 6 0 -4 -12 -1
-26 9 -18 11 -24 13 -19 4 5 -8 -2 -5 -15 6 -13 11 -20 14 -15 6 8 -15 -5 -10
-33 12 -17 13 -53 17 -46 5 3 -4 -2 -8 -11 -8 -9 0 -14 4 -11 9 3 5 -1 12 -10
15 -8 3 -12 2 -9 -4 3 -6 -1 -7 -9 -4 -9 3 -13 11 -9 18 4 6 0 6 -9 -2 -12
-10 -17 -10 -20 -1 -2 7 -12 13 -21 15 -9 1 -15 -2 -11 -7 3 -5 10 -6 16 -3 6
4 8 2 5 -4 -4 -5 -16 -8 -27 -5 -11 3 -17 10 -13 17 4 6 0 5 -9 -2 -13 -10
-18 -10 -24 -1 -5 8 -3 9 6 4 8 -5 11 -4 7 3 -4 5 -15 9 -25 7 -9 -1 -23 3
-31 9 -11 8 -13 8 -7 -1 4 -8 2 -13 -8 -13 -8 0 -20 8 -25 18 -6 9 -11 12 -11
6 0 -7 -7 -15 -16 -18 -13 -5 -14 -4 -6 7 9 10 8 14 -3 14 -8 0 -15 -3 -15 -7
0 -4 -10 -6 -23 -5 -12 1 -26 -4 -32 -11 -5 -7 -22 -15 -37 -18 -14 -2 -37
-11 -50 -20 -14 -9 -28 -13 -32 -9 -4 5 -6 1 -4 -7 1 -8 -3 -14 -10 -12 -6 1
-12 -3 -12 -9 0 -5 -5 -7 -10 -4 -6 3 -13 -1 -16 -9 -3 -9 -12 -16 -20 -16 -7
0 -21 -11 -30 -25 -9 -14 -22 -25 -28 -25 -7 0 -24 -13 -39 -28 l-27 -28 0
-966 0 -967 373 -5 c204 -3 397 -5 427 -4 176 5 226 1 271 -19 127 -57 221
-212 220 -362 0 -66 -18 -141 -34 -141 -6 0 -7 -3 -4 -6 13 -13 -29 -70 -101
-141 -50 -48 -121 -76 -191 -75 -25 0 -252 2 -503 4 l-458 3 0 -1034 c0 -904
2 -1032 15 -1028 8 4 17 2 21 -4 4 -7 10 -6 19 1 10 8 15 8 20 0 4 -7 11 -7
18 -2 7 5 93 10 192 11 451 7 571 10 591 14 11 3 41 6 65 8 24 1 50 7 57 12 8
6 12 6 12 -1 0 -7 10 -8 28 -3 15 4 64 7 109 6 46 0 83 2 83 5 0 7 52 8 355
13 183 2 246 6 265 17 14 8 28 13 33 12 4 -1 7 3 7 9 0 5 4 8 9 4 5 -3 12 -1
16 5 4 6 11 8 16 5 5 -4 9 -1 9 6 0 7 3 10 6 6 4 -3 28 2 55 13 29 10 46 13
42 7 -4 -7 1 -5 11 3 24 19 283 24 305 6 12 -8 13 -8 7 2 -4 6 -3 12 3 12 5 0
12 -4 15 -8 3 -5 19 -7 35 -6 17 1 31 -2 31 -8 0 -5 5 -6 10 -3 6 3 10 2 10
-4 0 -5 9 -8 20 -6 11 2 22 -1 25 -6 4 -5 11 -7 16 -4 5 4 9 2 9 -3 0 -5 10
-13 23 -17 12 -4 24 -8 27 -9 3 -2 19 -9 35 -16 29 -13 52 -19 85 -22 8 0 18
-6 22 -12 5 -7 8 -7 8 -1 0 7 41 10 108 10 102 0 236 8 312 20 78 12 97 15
140 20 25 3 54 7 65 9 11 3 33 5 48 5 33 1 36 -12 -35 181 -51 138 -93 284
-101 355 -7 60 -36 197 -47 223 -8 17 -7 21 1 16 8 -5 9 -3 3 7 -4 8 -9 19
-11 24 -9 44 -18 76 -26 95 -4 8 -8 26 -11 40 -3 14 -7 39 -10 55 -3 17 -8 53
-11 80 -2 28 -7 75 -10 105 -10 84 -11 130 -5 130 3 0 6 20 5 43 0 41 -24 84
-39 70 -3 -3 -78 -8 -166 -10 -145 -3 -164 -2 -200 17 -51 26 -72 25 -137 -6
-29 -15 -68 -26 -86 -26 -62 -1 -107 6 -107 16 0 5 -3 6 -7 3 -3 -4 -12 1 -20
11 -10 11 -12 12 -8 2 6 -13 5 -13 -7 0 -25 28 -62 56 -53 40 5 -9 -1 -7 -16
5 -37 31 -78 78 -85 98 -3 9 -10 17 -15 17 -6 0 -7 5 -3 12 4 6 1 16 -7 22
-17 14 -20 30 -20 131 1 111 4 139 19 148 6 4 12 15 12 24 0 14 2 14 15 -3 11
-13 13 -14 9 -3 -3 10 2 19 12 23 13 5 14 9 4 20 -14 18 11 34 58 38 23 2 28
5 21 14 -7 8 -6 15 2 20 7 4 9 3 6 -3 -4 -6 0 -14 8 -17 11 -4 15 0 13 11 -2
9 5 17 15 18 9 2 15 -1 11 -6 -3 -5 -1 -9 5 -9 5 0 11 5 13 12 5 13 68 19 68
6 0 -4 5 -8 11 -8 5 0 7 6 4 13 -4 6 0 4 8 -5 8 -10 20 -18 28 -18 11 0 11 2
-1 10 -12 8 -11 10 5 7 11 -1 25 -6 31 -10 6 -3 14 -3 18 0 10 11 37 12 30 2
-6 -10 32 -7 42 4 4 3 14 3 23 -2 24 -11 56 -8 77 9 18 14 18 14 4 -4 -13 -17
-13 -19 0 -14 8 3 25 1 38 -3 13 -5 21 -5 18 0 -3 5 1 12 10 15 8 3 12 2 9 -4
-3 -6 1 -7 9 -4 9 3 14 9 11 13 -2 4 2 8 10 8 8 0 11 -5 8 -11 -4 -6 0 -5 9 1
8 7 18 10 21 6 4 -3 12 -1 19 4 7 6 25 10 41 9 15 -1 27 3 27 9 0 5 5 3 10 -5
8 -13 10 -13 10 -1 0 11 4 10 16 -5 8 -10 13 -14 10 -7 -4 7 1 10 11 9 9 -2
19 -8 21 -14 2 -7 8 -12 13 -12 6 0 5 10 -2 23 -9 17 -9 19 0 11 7 -6 14 -20
16 -30 6 -30 6 -30 15 -9 8 18 9 18 9 2 1 -10 5 -16 10 -12 5 3 13 0 17 -6 4
-7 3 -9 -4 -5 -6 3 -13 3 -16 -2 -3 -4 14 -9 36 -11 38 -2 40 -1 27 15 -9 11
-9 15 -2 10 8 -4 22 2 35 15 13 12 17 19 11 15 -9 -5 -11 -2 -7 8 3 9 11 13
17 9 6 -3 7 -1 3 5 -4 6 -2 19 4 29 21 37 50 125 75 228 36 144 90 281 171
428 15 27 14 32 -20 112 -52 122 -102 275 -127 395 -19 88 -22 135 -22 298 0
148 -2 190 -12 182 -8 -6 -16 -6 -25 3 -10 10 -11 9 -5 -3 6 -12 5 -13 -6 -2
-15 14 -33 16 -25 3 4 -5 -3 -7 -14 -4 -11 3 -20 10 -20 17 0 7 -3 7 -8 1 -10
-14 -42 -15 -42 -2 0 6 -3 7 -7 4 -3 -4 -13 -1 -21 6 -13 10 -14 9 -7 -3 5 -8
-8 -2 -28 13 -20 15 -42 25 -47 22 -6 -3 -10 4 -10 17 0 16 -3 19 -9 10 -6
-11 -10 -10 -16 5 -5 10 -7 22 -6 26 1 4 -8 3 -18 -3 -14 -7 -22 -7 -27 2 -4
7 -3 8 4 4 7 -4 12 -3 12 2 0 6 -7 13 -16 16 -9 3 -14 12 -11 20 7 17 -26 49
-38 39 -5 -5 -3 0 4 9 11 15 9 22 -14 50 -16 18 -23 34 -16 36 7 2 5 10 -5 20
-10 10 -13 17 -6 20 7 2 8 11 2 27 -5 12 -6 25 -3 29 3 3 7 56 9 118 1 62 6
151 9 198 9 131 15 236 20 345 3 55 6 109 6 120 1 11 1 43 0 70 -1 82 1 105 9
100 3 -2 7 2 7 10 0 8 -4 12 -9 9 -9 -6 -4 38 6 55 4 5 2 12 -3 16 -11 6 -3
36 13 47 7 5 7 8 -1 8 -7 0 -13 9 -13 21 0 11 4 17 10 14 6 -4 7 1 3 11 -8 21
-9 66 -2 80 3 5 5 39 5 77 -1 37 3 67 7 67 5 0 5 5 2 10 -3 6 0 10 7 10 8 0 9
3 3 8 -12 8 -13 32 -2 50 5 6 6 12 2 12 -3 0 -1 9 5 19 7 14 7 22 0 26 -8 5
-8 11 0 20 6 8 10 22 8 32 -2 10 2 17 10 15 10 -2 10 2 2 18 -8 15 -8 20 1 20
7 0 10 3 6 6 -3 4 1 21 10 38 10 17 16 37 14 44 -1 8 4 21 11 30 11 13 11 14
-1 7 -11 -6 -13 -4 -8 8 3 9 -3 27 -13 40 -11 13 -17 27 -14 29 2 3 -9 11 -26
18 -16 7 -28 16 -25 20 3 4 -2 11 -11 14 -8 3 -12 2 -9 -4 10 -16 -5 -12 -36
11 -31 22 -97 31 -102 15 -2 -6 -9 -6 -18 -1 -8 5 -24 8 -36 6 -14 -1 -23 3
-23 11 0 10 -3 9 -10 -2 -7 -11 -10 -11 -10 -2 0 7 -5 10 -10 7 -6 -4 -8 -11
-5 -16 4 -5 -3 -6 -17 0 -13 5 -47 9 -76 10 -29 0 -61 5 -71 10 -10 6 -21 7
-25 4 -10 -11 -56 -15 -56 -5 0 4 -13 8 -29 7 -16 0 -27 -3 -24 -7 2 -5 -1 -8
-6 -8 -6 0 -11 8 -11 18 0 11 -3 13 -8 5 -6 -9 -47 -12 -47 -3 0 1 -8 3 -17 5
-10 2 -18 -1 -18 -6 0 -5 -11 -4 -26 1 -16 7 -23 7 -19 0 3 -6 1 -10 -4 -10
-6 0 -11 5 -11 12 0 6 -3 8 -7 5 -3 -4 -12 -2 -19 4 -8 7 -14 7 -19 -1 -7 -12
-45 -14 -45 -2 0 12 -29 11 -36 0z m831 -2077 c3 -5 2 -12 -3 -15 -5 -3 -9 1
-9 9 0 17 3 19 12 6z m-1587 -561 c1 -2 6 -3 11 -4 5 0 12 -4 16 -8 6 -5 -25
-3 -32 2 -2 2 -7 3 -12 4 -5 0 -12 4 -16 8 -6 5 25 3 33 -2z m344 -2 c-14 -14
-44 -20 -36 -7 3 5 9 7 14 4 5 -3 11 -1 15 5 3 5 9 10 13 10 3 0 1 -5 -6 -12z
m706 -203 c177 -53 291 -200 294 -379 2 -147 -62 -265 -192 -353 -74 -50 -140
-66 -239 -61 -108 6 -158 27 -237 101 -107 99 -149 217 -125 357 41 248 272
402 499 335z m-834 -133 c3 -5 -1 -9 -9 -9 -8 0 -12 4 -9 9 3 4 7 8 9 8 2 0 6
-4 9 -8z m0 -36 c-3 -8 0 -17 7 -22 7 -4 10 -3 5 4 -3 6 -1 14 5 18 7 4 9 3 5
-4 -3 -6 -2 -13 4 -17 5 -3 10 -1 10 6 0 7 3 9 6 6 4 -4 2 -12 -3 -19 -18 -23
-22 -45 -8 -45 8 0 11 7 7 15 -3 10 -1 13 7 8 6 -4 11 -4 10 1 -1 4 -1 15 0
23 1 13 3 13 10 1 5 -8 6 -22 2 -30 -4 -9 -6 -22 -5 -28 1 -7 2 -20 3 -29 0
-8 6 -12 11 -9 8 5 7 12 -2 23 -7 9 -8 13 -2 9 6 -3 11 0 11 8 0 8 -5 11 -11
8 -6 -4 -5 1 3 10 7 9 17 14 23 11 5 -4 5 -11 -1 -18 -7 -8 -7 -16 -1 -22 7
-7 2 -18 -14 -33 -14 -13 -22 -29 -20 -36 3 -7 1 -16 -5 -20 -7 -4 -8 1 -4 12
6 16 5 16 -10 4 -14 -11 -15 -17 -5 -30 12 -14 11 -15 -6 -1 -18 14 -19 13
-14 -8 4 -12 2 -20 -3 -16 -5 3 -9 12 -9 20 0 8 -6 13 -12 12 -14 -3 -32 -36
-29 -53 1 -5 -7 0 -18 12 -10 12 -21 19 -25 16 -3 -3 -1 -12 5 -19 7 -8 6 -14
-2 -20 -7 -4 -9 -3 -6 3 4 6 -1 17 -10 24 -15 12 -16 12 -9 -6 4 -11 4 -16 0
-12 -4 4 -14 1 -23 -5 -13 -10 -14 -10 -3 2 17 19 15 29 -5 26 -10 -2 -18 -8
-18 -14 0 -6 -3 -14 -7 -18 -4 -3 -5 3 -3 16 3 16 0 20 -10 16 -8 -3 -14 -2
-14 2 1 4 0 12 -1 17 -1 6 -3 24 -3 40 -1 18 -7 29 -14 28 -7 -2 -10 4 -6 13
5 13 8 13 15 2 6 -9 7 -3 3 17 -14 62 -14 66 -2 58 23 -14 38 -11 47 10 5 12
9 16 9 9 1 -7 -6 -25 -15 -40 l-16 -27 21 24 c12 13 21 29 21 37 0 8 3 13 8
13 4 -1 9 0 12 1 19 7 39 7 34 -1 -3 -5 0 -9 5 -9 6 0 11 8 12 18 0 14 2 14 9
-3 5 -11 9 -16 9 -11 1 5 9 2 18 -5 15 -12 16 -12 10 4 -4 11 -5 23 -1 28 8
14 14 11 8 -5z m1171 -995 c-9 -8 -36 -10 -30 -2 2 4 11 8 20 8 8 0 13 -3 10
-6z m-630 -11 c4 -6 1 -9 -6 -8 -6 2 -14 -3 -17 -11 -3 -10 0 -12 12 -8 10 4
15 3 11 -3 -6 -9 8 -14 28 -11 5 1 6 -3 2 -9 -4 -6 -15 -5 -33 4 -15 7 -37 12
-49 10 -17 -3 -23 1 -23 14 0 14 2 15 10 2 9 -13 10 -13 11 0 0 11 2 12 6 2 4
-10 9 -8 20 7 16 24 19 25 28 11z m42 -13 c0 -8 -6 -14 -14 -14 -9 0 -10 4 -2
14 6 7 12 13 14 13 1 0 2 -6 2 -13z m-129 -22 c0 -13 -8 -31 -18 -40 -14 -13
-17 -13 -17 -1 0 8 5 14 10 13 5 -1 12 4 15 12 3 9 0 11 -7 6 -9 -5 -9 -1 1
14 16 26 16 26 16 -4z m257 6 c-9 -8 -36 -10 -30 -2 2 4 11 8 20 8 8 0 13 -3
10 -6z m-67 -64 c6 -5 12 -16 11 -25 0 -12 -3 -10 -10 6 -5 13 -13 21 -18 17
-5 -3 -12 -1 -15 4 -7 11 13 9 32 -2z"/>
<path d="M1441 6016 c-9 -10 -8 -16 3 -25 10 -9 16 -8 25 3 9 10 8 16 -3 25
-10 9 -16 8 -25 -3z m29 -10 c0 -11 -19 -15 -25 -6 -3 5 1 10 9 10 9 0 16 -2
16 -4z"/>
<path d="M1491 6008 c-1 -10 9 -22 22 -28 19 -9 20 -9 6 2 -9 7 -18 20 -22 28
-4 12 -6 12 -6 -2z"/>
<path d="M1358 5971 c3 -9 9 -21 13 -27 5 -6 6 -14 2 -17 -3 -4 -6 -23 -7 -43
-1 -26 4 -39 18 -46 14 -8 17 -7 13 4 -2 7 -9 12 -14 11 -5 -1 -7 11 -5 28 2
16 8 26 13 23 5 -3 6 -10 3 -16 -4 -5 -1 -21 6 -34 12 -22 14 -22 27 -6 13 15
14 15 10 0 -7 -20 25 -18 31 2 3 8 9 5 18 -11 l13 -24 12 33 c9 26 14 31 21
20 8 -10 9 -9 5 4 -3 9 -3 19 1 22 3 4 7 14 8 22 1 9 -1 13 -4 9 -4 -4 -7 -10
-7 -13 0 -15 -17 -32 -26 -27 -5 4 -12 -1 -16 -11 -5 -14 -8 -13 -18 6 -10 19
-13 20 -18 6 -4 -10 -3 -15 3 -11 12 8 13 -5 1 -24 -6 -10 -11 -6 -19 15 -6
16 -11 22 -11 13 -1 -19 -31 -21 -31 -2 0 8 4 12 8 9 5 -3 9 1 9 9 0 8 -3 13
-5 10 -3 -3 -11 0 -19 7 -11 9 -11 14 4 32 16 19 17 20 1 7 -15 -11 -19 -11
-24 2 -3 9 -3 20 0 25 3 5 -1 9 -8 9 -9 0 -12 -7 -8 -16z m143 -118 c-12 -20
-14 -14 -5 12 4 9 9 14 11 11 3 -2 0 -13 -6 -23z"/>
<path d="M1589 5927 c15 -19 1 -30 -17 -14 -11 8 -14 8 -9 0 4 -6 3 -14 -3
-18 -5 -3 -10 -14 -9 -23 0 -14 2 -13 9 3 5 11 9 16 9 11 1 -5 10 -1 20 8 19
18 18 46 -1 46 -7 0 -6 -5 1 -13z"/>
<path d="M8875 8750 c0 -27 3 -51 5 -54 3 -3 6 17 5 44 0 26 -2 51 -5 53 -3 3
-5 -16 -5 -43z"/>
<path d="M5120 7840 c-8 -5 -36 -8 -62 -5 -44 3 -50 1 -93 -39 -45 -43 -70
-95 -60 -127 10 -29 15 -149 14 -334 0 -195 -2 -236 -14 -255 -6 -9 -4 -11 5
-5 10 6 11 4 4 -6 -8 -13 -13 -37 -16 -86 -1 -13 -5 -23 -10 -23 -4 0 -5 -6
-2 -14 3 -8 0 -17 -6 -21 -9 -6 -9 -10 1 -16 10 -6 7 -9 -10 -9 -13 0 -22 -3
-18 -6 3 -3 48 4 99 15 127 29 198 40 302 48 73 5 91 3 100 -9 9 -12 12 -3 13
42 1 70 26 126 67 152 27 16 48 18 153 17 121 -3 161 4 109 17 -14 3 -26 10
-26 16 0 5 -5 6 -12 2 -8 -5 -9 -2 -5 10 4 10 3 15 -3 11 -6 -3 -10 -1 -10 5
0 6 -4 9 -9 6 -5 -3 -12 1 -15 10 -4 9 -13 14 -22 10 -8 -3 -12 -2 -9 4 3 6 1
10 -5 10 -7 0 -9 7 -6 16 3 8 2 13 -3 10 -5 -3 -12 1 -15 10 -3 8 -10 12 -16
9 -6 -3 -7 1 -4 9 3 9 1 16 -5 16 -6 0 -11 7 -11 15 0 7 -8 19 -17 24 -13 8
-14 10 -4 11 12 0 12 2 -1 13 -19 15 -31 47 -17 47 6 0 3 7 -6 16 -13 14 -14
19 -3 25 10 7 10 9 -2 9 -13 0 -13 1 0 10 8 5 10 10 5 10 -6 0 -11 9 -11 20 0
11 3 20 6 20 3 0 6 8 7 18 1 9 3 31 5 49 3 21 -1 34 -10 38 -10 4 -11 9 -3 18
8 10 5 18 -10 31 -12 9 -18 24 -15 32 3 8 2 13 -3 10 -5 -3 -20 6 -34 20 -15
15 -31 23 -38 18 -7 -4 -9 -3 -6 3 8 12 -14 23 -44 23 -14 0 -18 4 -13 13 6 9
4 9 -8 -1 -11 -9 -23 -10 -42 -2 -19 7 -26 6 -26 -2 0 -7 -7 -3 -16 8 -8 10
-12 13 -8 5 5 -10 1 -11 -17 -5 -13 4 -32 7 -42 6 -9 0 -15 3 -12 9 8 11 4 11
-15 -1z m-83 -16 c-3 -3 -12 -4 -19 -1 -8 3 -5 6 6 6 11 1 17 -2 13 -5z"/>
<path d="M3878 7195 c-2 -1 -46 -5 -98 -9 -52 -3 -128 -15 -169 -25 -62 -17
-82 -28 -118 -63 -39 -39 -45 -52 -62 -133 -77 -352 -66 -620 35 -879 44 -111
188 -394 215 -421 l20 -20 25 30 c13 17 45 71 70 120 58 112 115 208 121 202
2 -3 -4 -20 -14 -38 -10 -19 -24 -47 -31 -63 -11 -25 -11 -28 1 -18 8 7 18 8
22 4 5 -4 4 -1 0 7 -6 11 -4 13 8 8 10 -3 17 -3 17 2 0 5 30 27 68 49 37 22
83 54 102 70 19 17 38 28 42 26 4 -3 8 3 8 12 0 10 3 15 6 11 6 -6 17 1 55 36
10 9 22 16 25 16 4 -1 20 11 37 27 17 16 27 22 23 14 -4 -8 2 -4 14 10 12 14
19 18 15 10 -4 -8 3 -4 15 10 12 14 19 18 15 10 -4 -10 -1 -9 8 3 8 9 19 17
25 17 6 0 16 8 21 18 6 9 11 13 11 9 0 -5 7 -1 16 7 8 9 20 13 26 10 6 -4 8
-2 5 3 -4 6 0 14 9 17 8 3 13 10 9 15 -3 6 3 8 14 6 13 -2 18 1 15 10 -3 7 0
16 7 21 8 5 10 3 5 -7 -4 -8 4 -1 18 14 14 15 26 24 27 20 0 -4 5 3 11 17 6
14 11 28 10 31 0 3 6 6 14 6 12 0 12 -3 -1 -17 -8 -9 -15 -20 -15 -24 0 -11
54 55 56 68 1 6 5 20 9 31 5 15 3 14 -8 -4 -12 -20 -15 -21 -20 -7 -4 10 -3
15 3 11 6 -3 10 1 10 10 0 10 -5 13 -12 9 -8 -5 -9 -2 -5 10 5 13 3 17 -7 13
-10 -4 -12 1 -9 16 4 18 3 19 -6 7 -10 -13 -11 -13 -12 0 -5 62 -4 78 6 72 5
-3 4 2 -4 11 -8 10 -11 20 -8 23 7 8 -75 128 -120 175 -18 19 -32 37 -31 40 2
2 1 3 -1 2 -2 -1 -22 12 -43 29 -35 27 -154 78 -183 78 -5 0 5 -10 23 -21 17
-12 32 -22 32 -24 0 -2 -21 4 -47 12 -113 36 -242 35 -273 -3 -7 -7 -20 -14
-29 -14 -9 0 -22 -5 -29 -12 -9 -9 -12 -9 -12 0 0 7 8 15 18 19 29 10 52 35
52 57 0 13 -3 17 -8 9 -4 -6 -27 -14 -52 -16 -25 -3 -54 -8 -65 -11 -11 -2
-23 -5 -27 -5 -4 -1 -19 -13 -33 -28 -28 -31 -33 -20 -11 22 8 15 12 33 10 40
-3 7 0 16 5 20 6 3 8 12 4 18 -4 7 2 5 12 -3 10 -8 16 -10 13 -5 -4 6 2 17 14
24 16 10 19 10 13 -1 -6 -10 -5 -11 6 0 7 6 23 12 36 12 13 0 23 4 23 9 0 4
-12 7 -27 5 -16 -1 -48 -4 -73 -5 -57 -3 -112 -24 -172 -66 -55 -38 -65 -24
-17 26 28 30 62 50 99 57 84 18 132 22 235 20 205 -5 358 -54 505 -162 66 -48
155 -144 192 -206 11 -18 24 -35 27 -38 27 -20 63 -105 64 -150 0 -8 4 -21 10
-28 7 -9 5 -11 -9 -6 -10 4 -16 4 -12 -1 9 -10 69 -15 63 -5 -5 8 53 23 67 17
9 -3 78 70 79 85 1 7 3 23 4 36 1 12 -2 22 -8 22 -6 0 -7 3 -4 7 4 3 -21 27
-56 52 -34 25 -106 90 -160 143 -53 54 -97 95 -97 91 0 -4 -15 7 -32 23 -54
49 -218 145 -218 127 0 -5 -4 -2 -9 5 -4 7 -18 14 -29 15 -12 1 -22 4 -22 8 0
9 -64 26 -145 38 -69 10 -240 22 -247 16z m-167 -318 c-10 -9 -11 -8 -5 6 3
10 9 15 12 12 3 -3 0 -11 -7 -18z m299 -107 c0 -5 -3 -9 -7 -9 -5 1 -11 0 -15
-1 -5 -1 -16 -3 -25 -5 -78 -9 -389 -183 -428 -238 -26 -37 6 -107 48 -107 11
0 48 16 81 35 85 49 93 55 137 98 21 20 46 37 56 37 15 -1 14 -4 -7 -21 -57
-46 -95 -84 -92 -92 1 -5 -1 -6 -6 -3 -15 9 -34 -11 -35 -37 -1 -14 -4 -23 -6
-21 -5 5 -24 -37 -35 -77 -6 -18 -5 -21 3 -9 9 12 10 11 8 -7 -2 -12 -7 -26
-12 -30 -4 -5 -5 -2 0 6 6 10 4 12 -4 7 -9 -6 -9 -11 1 -24 10 -13 10 -14 0
-8 -9 6 -11 1 -8 -18 5 -29 -10 -45 -18 -19 -3 10 -4 6 -2 -9 4 -36 -6 -28
-49 37 -52 77 -63 85 -86 56 -17 -21 -19 -21 -20 -5 0 11 -3 28 -6 39 -2 11
-7 77 -9 147 -3 115 -2 127 13 121 10 -4 14 -2 9 5 -3 6 -2 14 4 17 6 4 9 2 8
-3 -2 -6 2 -10 7 -10 6 -1 9 7 7 16 -2 12 2 10 13 -6 15 -21 19 -22 34 -9 24
22 186 96 266 122 53 17 74 20 84 11 11 -8 13 -8 8 1 -5 8 5 13 30 16 21 2 41
4 46 5 4 1 7 -2 7 -8z m-510 -115 c0 -2 -6 -8 -13 -14 -10 -8 -14 -7 -14 2 0
8 6 14 14 14 7 0 13 -1 13 -2z m1130 -221 c0 -8 -19 -13 -24 -6 -3 5 1 9 9 9
8 0 15 -2 15 -3z m-927 -79 c-3 -9 -8 -14 -10 -11 -3 3 -2 9 2 15 9 16 15 13
8 -4z"/>
<path d="M3525 6610 c-4 -6 -10 -8 -15 -5 -10 6 -35 -23 -26 -32 3 -3 6 -1 6
6 0 7 4 10 9 6 5 -3 12 -1 16 5 4 6 10 8 14 6 4 -3 8 1 8 9 0 18 -3 19 -12 5z"/>
<path d="M3880 7072 c0 -4 11 -8 25 -8 14 0 25 4 25 8 0 4 -11 8 -25 8 -14 0
-25 -4 -25 -8z"/>
<path d="M5688 7074 c-2 -1 -35 -5 -72 -8 -38 -3 -71 -7 -73 -9 -5 -5 -5 -47
0 -97 l5 -45 102 -3 101 -3 -3 83 c-3 83 -3 83 -30 85 -15 0 -29 -1 -30 -3z"/>
<path d="M4005 7063 c53 -13 262 -86 308 -109 l52 -25 -30 25 c-69 59 -227
117 -310 115 -22 -1 -31 -3 -20 -6z"/>
<path d="M5621 6594 c0 -11 3 -14 6 -6 3 7 2 16 -1 19 -3 4 -6 -2 -5 -13z"/>
<path d="M4589 6598 c-5 -18 -6 -38 -1 -34 7 8 12 36 6 36 -2 0 -4 -1 -5 -2z"/>
<path d="M6663 6146 c-3 -5 -1 -6 5 -2 7 4 12 3 12 -2 0 -17 -13 -22 -27 -10
-11 9 -13 8 -11 -3 2 -8 -2 -13 -9 -12 -7 2 -10 -4 -6 -13 5 -13 7 -13 14 -2
7 10 9 10 9 -2 0 -9 3 -11 8 -5 4 6 14 10 22 10 25 -2 32 6 19 22 -10 12 -10
16 2 23 10 7 8 9 -9 7 -13 -1 -26 -6 -29 -11z m31 -24 c3 -5 -1 -9 -9 -9 -8 0
-12 4 -9 9 3 4 7 8 9 8 2 0 6 -4 9 -8z"/>
<path d="M6536 6075 c-9 -26 -7 -32 5 -12 6 10 9 21 6 23 -2 3 -7 -2 -11 -11z"/>
<path d="M6441 6036 c-9 -11 -9 -16 1 -22 7 -4 10 -4 6 1 -4 4 -3 14 3 22 6 7
9 13 6 13 -2 0 -10 -6 -16 -14z"/>
<path d="M6460 6016 c0 -8 4 -17 9 -20 5 -4 7 3 4 14 -6 23 -13 26 -13 6z"/>
<path d="M6334 5992 c4 -3 14 -7 22 -8 9 -1 13 0 10 4 -4 3 -14 7 -22 8 -9 1
-13 0 -10 -4z"/>
<path d="M4745 5931 c-84 -48 -175 -154 -175 -203 0 -32 21 -19 82 47 71 78
164 129 224 123 47 -4 58 21 22 46 -35 25 -96 20 -153 -13z"/>
<path d="M6196 5848 c3 -5 10 -6 15 -3 13 9 11 12 -6 12 -8 0 -12 -4 -9 -9z"/>
<path d="M6097 5580 c3 -11 9 -17 15 -14 5 3 4 12 -3 20 -16 19 -18 18 -12 -6z"/>
<path d="M4758 5583 c7 -3 16 -2 19 1 4 3 -2 6 -13 5 -11 0 -14 -3 -6 -6z"/>
<path d="M4750 5549 c-98 -39 -171 -211 -125 -298 23 -45 107 -56 174 -22 63
33 130 140 131 209 0 49 -25 101 -55 112 -33 12 -92 12 -125 -1z m105 -44 c14
-13 25 -34 25 -47 0 -25 -14 -52 -23 -46 -8 4 -137 -104 -148 -124 -5 -10 -17
-18 -25 -18 -18 0 -44 58 -44 96 0 42 46 110 93 138 53 33 91 33 122 1z"/>
<path d="M6076 5488 c3 -5 10 -6 15 -3 13 9 11 12 -6 12 -8 0 -12 -4 -9 -9z"/>
<path d="M6156 5428 c3 -5 10 -6 15 -3 13 9 11 12 -6 12 -8 0 -12 -4 -9 -9z"/>
<path d="M3255 4867 c-19 -59 -19 -63 -2 -80 9 -9 17 -14 18 -9 0 4 2 18 4 32
9 60 12 120 6 120 -3 0 -15 -29 -26 -63z"/>
<path d="M3275 4638 c-8 -36 -25 -321 -25 -411 0 -85 5 -103 30 -109 12 -2 14
27 15 187 1 105 5 227 10 273 7 72 6 82 -9 82 -8 0 -18 -10 -21 -22z"/>
<path d="M4874 3742 c3 -3 -2 -11 -12 -19 -16 -12 -15 -15 11 -36 37 -31 102
-35 116 -9 14 27 -11 47 -72 60 -27 5 -46 7 -43 4z"/>
<path d="M5196 3668 c3 -5 10 -6 15 -3 13 9 11 12 -6 12 -8 0 -12 -4 -9 -9z"/>
<path d="M4451 3494 c0 -11 3 -14 6 -6 3 7 2 16 -1 19 -3 4 -6 -2 -5 -13z"/>
<path d="M4227 2990 c3 -11 9 -20 15 -20 5 0 4 9 -2 20 -6 11 -12 20 -14 20
-2 0 -2 -9 1 -20z"/>
<path d="M4151 2833 c-1 -17 16 -25 25 -12 4 7 3 9 -4 5 -5 -3 -13 0 -15 6 -4
9 -6 10 -6 1z"/>
<path d="M4113 2755 c4 -5 -3 -19 -15 -32 -12 -12 -20 -25 -17 -27 2 -2 14 9
27 25 17 21 19 29 10 35 -7 4 -10 3 -5 -1z"/>
<path d="M3820 2292 c0 -30 -1 -35 -10 -52 -4 -8 -10 -35 -14 -60 -3 -25 -8
-67 -12 -95 -3 -27 -7 -51 -9 -53 -1 -2 3 -23 10 -47 17 -55 15 -69 -20 -112
-23 -30 -27 -43 -25 -87 1 -28 2 -63 2 -78 0 -17 5 -25 13 -22 7 3 13 -1 12
-8 -1 -34 5 -46 25 -51 12 -4 24 -4 27 -2 2 3 3 31 2 63 -1 32 6 130 15 218
17 171 15 377 -5 397 -8 8 -11 5 -11 -11z m-15 -621 c-3 -5 -1 -12 5 -16 15
-9 2 -25 -15 -19 -7 3 -16 12 -19 20 -3 8 -2 12 3 9 5 -3 12 -1 16 5 3 5 8 10
11 10 3 0 3 -4 -1 -9z"/>
<path d="M3746 1633 c-6 -14 -5 -15 5 -6 7 7 10 15 7 18 -3 3 -9 -2 -12 -12z"/>
<path d="M975 1320 c-3 -6 1 -7 9 -4 18 7 21 14 7 14 -6 0 -13 -4 -16 -10z"/>
<path d="M3789 1283 c-18 -20 -25 -31 -15 -23 18 14 19 13 13 -2 -4 -12 -2
-18 7 -18 8 0 16 -6 19 -12 2 -7 8 -10 12 -5 11 10 13 77 2 77 -4 0 -5 5 -2
10 12 20 -2 9 -36 -27z m41 -35 c0 -4 -4 -8 -9 -8 -6 0 -12 4 -15 8 -3 5 1 9
9 9 8 0 15 -4 15 -9z"/>
<path d="M3735 1280 c-3 -6 1 -7 9 -4 18 7 21 14 7 14 -6 0 -13 -4 -16 -10z"/>
<path d="M885 1257 c-30 -18 -65 -50 -65 -60 0 -5 7 -2 15 5 21 19 37 32 65
51 28 19 16 23 -15 4z"/>
<path d="M3035 1252 c-5 -4 -17 -16 -25 -27 -11 -15 -7 -14 13 4 24 22 32 31
25 31 -2 0 -7 -4 -13 -8z"/>
<path d="M2870 1225 c-11 -13 -10 -14 4 -9 9 3 16 10 16 15 0 13 -6 11 -20 -6z"/>
<path d="M750 1158 c-67 -49 -83 -65 -50 -47 14 7 29 12 33 11 5 -1 6 2 2 8
-3 5 0 10 7 10 16 1 74 47 67 54 -3 3 -29 -13 -59 -36z"/>
<path d="M4088 1173 c7 -3 16 -2 19 1 4 3 -2 6 -13 5 -11 0 -14 -3 -6 -6z"/>
<path d="M3820 1149 c-7 -11 -10 -23 -7 -25 2 -2 9 7 15 21 14 30 7 33 -8 4z"/>
<path d="M3749 1098 c-6 -20 -6 -39 0 -42 4 -3 7 6 7 20 0 20 -4 32 -7 22z"/>
<path d="M4120 1025 c-7 -8 -9 -15 -4 -15 5 0 2 -5 -6 -10 -13 -8 -12 -10 3
-10 10 0 15 -5 12 -10 -4 -6 -11 -7 -17 -4 -6 4 -8 2 -5 -4 8 -11 25 -11 45 2
10 6 10 11 2 21 -8 9 -8 15 0 20 11 7 4 25 -9 25 -5 0 -14 -7 -21 -15z m25
-34 c3 -5 2 -12 -3 -15 -5 -3 -9 1 -9 9 0 17 3 19 12 6z"/>
<path d="M7896 927 c3 -10 9 -15 12 -12 3 3 0 11 -7 18 -10 9 -11 8 -5 -6z"/>
<path d="M8057 912 c1 -3 -2 -13 -8 -24 -8 -15 -13 -17 -25 -7 -8 6 -14 8 -14
4 0 -5 -9 0 -20 10 -11 10 -20 15 -20 10 0 -9 51 -50 65 -50 5 -1 9 -6 8 -12
-3 -12 15 -12 33 0 19 11 25 -5 6 -20 -9 -8 -11 -12 -4 -8 7 4 21 1 30 -7 15
-12 16 -11 3 5 -7 9 -10 17 -6 17 4 0 3 6 -3 13 -5 6 -8 23 -6 37 1 14 0 19
-2 12 -4 -9 -10 -7 -22 6 -10 10 -16 16 -15 14z m21 -60 c-17 -20 -40 5 -26
28 11 17 13 17 24 2 9 -12 9 -21 2 -30z"/>
<path d="M8056 871 c-4 -5 -2 -12 3 -15 5 -4 12 -2 15 3 4 5 2 12 -3 15 -5 4
-12 2 -15 -3z"/>
<path d="M7511 854 c6 -7 16 -11 22 -7 6 4 8 0 5 -9 -4 -9 0 -15 8 -15 21 0
-7 39 -30 43 -14 2 -15 0 -5 -12z"/>
<path d="M8140 831 c0 -6 4 -13 10 -16 6 -3 7 1 4 9 -7 18 -14 21 -14 7z"/>
<path d="M3851 823 c-1 -17 16 -25 25 -12 4 7 3 9 -4 5 -5 -3 -13 0 -15 6 -4
9 -6 10 -6 1z"/>
<path d="M7910 825 c0 -6 6 -17 13 -24 10 -12 8 -13 -8 -7 -18 5 -18 4 -4 -6
9 -7 15 -21 13 -31 -1 -9 1 -15 5 -12 11 6 7 47 -7 70 -6 11 -12 15 -12 10z"/>
<path d="M3822 771 c5 -16 35 -24 43 -11 3 5 -3 7 -12 6 -10 -2 -22 2 -26 8
-6 7 -7 6 -5 -3z"/>
<path d="M7720 741 c0 -6 4 -13 10 -16 6 -3 7 1 4 9 -7 18 -14 21 -14 7z"/>
<path d="M3808 672 c3 -9 1 -13 -5 -9 -5 3 -10 0 -10 -8 0 -17 14 -10 26 14 7
13 6 18 -4 18 -7 0 -11 -7 -7 -15z"/>
<path d="M3794 616 c1 -8 5 -18 8 -22 4 -3 5 1 4 10 -1 8 -5 18 -8 22 -4 3 -5
-1 -4 -10z"/>
<path d="M8460 602 c0 -7 -5 -10 -12 -6 -7 4 -8 3 -4 -5 4 -6 12 -8 18 -5 8 5
9 1 4 -12 -5 -14 -4 -16 4 -7 9 8 9 16 1 30 -6 10 -11 13 -11 5z"/>
<path d="M3793 219 c-1 -10 3 -22 9 -25 7 -4 8 -2 4 5 -4 6 -3 18 3 25 8 9 7
13 -2 13 -7 0 -14 -8 -14 -18z"/>
<path d="M3729 217 c6 -8 7 -18 3 -22 -4 -5 -1 -5 6 -1 10 6 10 11 1 22 -6 8
-14 14 -16 14 -3 0 0 -6 6 -13z"/>
<path d="M7935 170 c3 -5 8 -10 11 -10 2 0 4 5 4 10 0 6 -5 10 -11 10 -5 0 -7
-4 -4 -10z"/>
<path d="M3787 79 c-8 -28 -3 -34 11 -16 6 7 7 19 3 26 -6 9 -10 6 -14 -10z"/>
<path d="M8061 54 c0 -11 3 -14 6 -6 3 7 2 16 -1 19 -3 4 -6 -2 -5 -13z"/>
<path d="M3665 10 c-2 -3 5 -7 16 -7 10 -1 19 2 19 6 0 9 -29 10 -35 1z"/>
</g>
</svg>
